M48
; DRILL file {KiCad (5.1.10-1-10_14)} date Thursday, November 11, 2021 at 07:56:35 PM
; FORMAT={-:-/ absolute / metric / decimal}
; #@! TF.CreationDate,2021-11-11T19:56:35+01:00
; #@! TF.GenerationSoftware,Kicad,Pcbnew,(5.1.10-1-10_14)
; #@! TF.FileFunction,Plated,1,2,PTH
FMAT,2
METRIC
T1C0.400
T2C0.500
T3C1.000
T4C3.200
%
G90
G05
T1
X74.295Y-144.78
X74.93Y-108.864
X75.641Y-128.93
X76.022Y-120.802
X77.343Y-135.738
X79.35Y-132.029
X80.391Y-138.481
X81.026Y-120.904
X82.601Y-125.628
X84.074Y-110.617
X84.328Y-135.382
X84.43Y-138.049
X85.471Y-108.839
X86.741Y-144.399
X88.773Y-123.063
X89.281Y-126.619
X89.662Y-135.382
X89.713Y-137.795
X90.297Y-133.096
X90.678Y-116.078
X91.313Y-123.571
X91.313Y-130.937
X91.389Y-128.118
X91.821Y-119.126
X92.583Y-108.839
X92.71Y-115.062
X92.761Y-133.147
X94.869Y-118.11
X95.631Y-137.922
X96.3Y-116.078
X97.18Y-127.254
X98.425Y-123.317
X99.314Y-130.81
X99.466Y-142.697
X99.568Y-144.907
X100.686Y-117.094
X100.838Y-128.129
X100.863Y-135.382
X100.965Y-122.887
X101.092Y-124.206
X101.194Y-125.527
X101.981Y-128.905
X103.175Y-116.434
X103.632Y-138.303
X103.683Y-129.083
X104.584Y-127.914
X105.766Y-139.802
X105.816Y-120.853
X106.553Y-134.62
X109.474Y-128.27
X109.83Y-131.521
X110.947Y-140.208
X112.014Y-127.711
X112.014Y-134.112
X113.487Y-145.034
X113.843Y-123.088
X114.097Y-115.367
X116.18Y-122.072
X116.586Y-127.254
X117.399Y-117.754
X118.872Y-140.208
X119.329Y-132.131
X119.507Y-136.017
X127.102Y-129.134
X127.635Y-142.748
X127.762Y-136.906
T2
X76.188Y-112.065
X76.891Y-110.368
X76.891Y-113.762
X78.588Y-109.665
X78.588Y-114.465
X80.285Y-110.368
X80.285Y-113.762
X80.988Y-112.065
X121.425Y-132.334
X122.128Y-130.637
X122.128Y-134.031
X123.825Y-129.934
X123.825Y-134.734
X125.522Y-130.637
X125.522Y-134.031
X126.225Y-132.334
T3
X76.327Y-141.351
X78.867Y-141.351
X82.931Y-141.351
X84.391Y-121.856
X84.391Y-124.396
X84.391Y-126.936
X84.391Y-129.476
X84.391Y-132.017
X85.471Y-141.351
X86.931Y-121.856
X86.931Y-124.396
X86.931Y-126.936
X86.931Y-129.476
X86.931Y-132.017
X95.758Y-110.236
X95.758Y-112.776
X98.298Y-110.236
X98.298Y-112.776
X100.838Y-110.236
X100.838Y-112.776
X103.378Y-110.236
X103.378Y-112.776
X105.918Y-110.236
X105.918Y-112.776
X108.458Y-110.236
X108.458Y-112.776
X110.998Y-110.236
X110.998Y-112.776
X113.538Y-110.236
X113.538Y-112.776
X116.078Y-110.236
X116.078Y-112.776
X118.618Y-110.236
X118.618Y-112.776
X121.158Y-110.236
X121.158Y-112.776
X122.428Y-138.811
X122.428Y-141.351
X122.428Y-143.891
X123.698Y-110.236
X123.698Y-112.776
X124.968Y-138.811
X124.968Y-141.351
X124.968Y-143.891
X126.238Y-110.236
X126.238Y-112.776
T4
X78.588Y-112.065
X123.825Y-132.334
T0
M30
