G04 #@! TF.GenerationSoftware,KiCad,Pcbnew,(5.1.10-1-10_14)*
G04 #@! TF.CreationDate,2021-11-11T19:55:44+01:00*
G04 #@! TF.ProjectId,Demo Project 01,44656d6f-2050-4726-9f6a-656374203031,mk0*
G04 #@! TF.SameCoordinates,Original*
G04 #@! TF.FileFunction,Legend,Top*
G04 #@! TF.FilePolarity,Positive*
%FSLAX46Y46*%
G04 Gerber Fmt 4.6, Leading zero omitted, Abs format (unit mm)*
G04 Created by KiCad (PCBNEW (5.1.10-1-10_14)) date 2021-11-11 19:55:44*
%MOMM*%
%LPD*%
G01*
G04 APERTURE LIST*
%ADD10C,0.187500*%
%ADD11C,0.250000*%
%ADD12C,0.300000*%
%ADD13C,0.120000*%
%ADD14C,0.100000*%
%ADD15C,0.150000*%
%ADD16O,1.802000X1.802000*%
%ADD17C,1.802000*%
%ADD18C,6.502000*%
%ADD19C,0.902000*%
G04 APERTURE END LIST*
D10*
X76404571Y-138757428D02*
X76654571Y-138757428D01*
X76761714Y-139150285D02*
X76404571Y-139150285D01*
X76404571Y-138400285D01*
X76761714Y-138400285D01*
X77011714Y-138400285D02*
X77511714Y-139150285D01*
X77511714Y-138400285D02*
X77011714Y-139150285D01*
X77690285Y-138400285D02*
X78118857Y-138400285D01*
X77904571Y-139150285D02*
X77904571Y-138400285D01*
X79333142Y-139150285D02*
X78904571Y-139150285D01*
X79118857Y-139150285D02*
X79118857Y-138400285D01*
X79047428Y-138507428D01*
X78976000Y-138578857D01*
X78904571Y-138614571D01*
X81798285Y-138527285D02*
X82048285Y-139277285D01*
X82298285Y-138527285D01*
X82976857Y-139205857D02*
X82941142Y-139241571D01*
X82834000Y-139277285D01*
X82762571Y-139277285D01*
X82655428Y-139241571D01*
X82584000Y-139170142D01*
X82548285Y-139098714D01*
X82512571Y-138955857D01*
X82512571Y-138848714D01*
X82548285Y-138705857D01*
X82584000Y-138634428D01*
X82655428Y-138563000D01*
X82762571Y-138527285D01*
X82834000Y-138527285D01*
X82941142Y-138563000D01*
X82976857Y-138598714D01*
X83726857Y-139205857D02*
X83691142Y-139241571D01*
X83584000Y-139277285D01*
X83512571Y-139277285D01*
X83405428Y-139241571D01*
X83334000Y-139170142D01*
X83298285Y-139098714D01*
X83262571Y-138955857D01*
X83262571Y-138848714D01*
X83298285Y-138705857D01*
X83334000Y-138634428D01*
X83405428Y-138563000D01*
X83512571Y-138527285D01*
X83584000Y-138527285D01*
X83691142Y-138563000D01*
X83726857Y-138598714D01*
X84048285Y-138884428D02*
X84619714Y-138884428D01*
X84405428Y-138777285D02*
X84262571Y-139205857D01*
X84619714Y-139098714D02*
X84048285Y-139098714D01*
X84869714Y-138527285D02*
X85119714Y-139277285D01*
X85369714Y-138527285D01*
X85619714Y-138527285D02*
X85619714Y-139134428D01*
X85655428Y-139205857D01*
X85691142Y-139241571D01*
X85762571Y-139277285D01*
X85905428Y-139277285D01*
X85976857Y-139241571D01*
X86012571Y-139205857D01*
X86048285Y-139134428D01*
X86048285Y-138527285D01*
X86369714Y-139241571D02*
X86476857Y-139277285D01*
X86655428Y-139277285D01*
X86726857Y-139241571D01*
X86762571Y-139205857D01*
X86798285Y-139134428D01*
X86798285Y-139063000D01*
X86762571Y-138991571D01*
X86726857Y-138955857D01*
X86655428Y-138920142D01*
X86512571Y-138884428D01*
X86441142Y-138848714D01*
X86405428Y-138813000D01*
X86369714Y-138741571D01*
X86369714Y-138670142D01*
X86405428Y-138598714D01*
X86441142Y-138563000D01*
X86512571Y-138527285D01*
X86691142Y-138527285D01*
X86798285Y-138563000D01*
X87369714Y-138884428D02*
X87476857Y-138920142D01*
X87512571Y-138955857D01*
X87548285Y-139027285D01*
X87548285Y-139134428D01*
X87512571Y-139205857D01*
X87476857Y-139241571D01*
X87405428Y-139277285D01*
X87119714Y-139277285D01*
X87119714Y-138527285D01*
X87369714Y-138527285D01*
X87441142Y-138563000D01*
X87476857Y-138598714D01*
X87512571Y-138670142D01*
X87512571Y-138741571D01*
X87476857Y-138813000D01*
X87441142Y-138848714D01*
X87369714Y-138884428D01*
X87119714Y-138884428D01*
D11*
X127182619Y-140239857D02*
X128182619Y-140239857D01*
X127468333Y-140573190D01*
X128182619Y-140906523D01*
X127182619Y-140906523D01*
X128182619Y-141573190D02*
X128182619Y-141763666D01*
X128135000Y-141858904D01*
X128039761Y-141954142D01*
X127849285Y-142001761D01*
X127515952Y-142001761D01*
X127325476Y-141954142D01*
X127230238Y-141858904D01*
X127182619Y-141763666D01*
X127182619Y-141573190D01*
X127230238Y-141477952D01*
X127325476Y-141382714D01*
X127515952Y-141335095D01*
X127849285Y-141335095D01*
X128039761Y-141382714D01*
X128135000Y-141477952D01*
X128182619Y-141573190D01*
X118276761Y-141835142D02*
X118229142Y-141882761D01*
X118086285Y-141930380D01*
X117991047Y-141930380D01*
X117848190Y-141882761D01*
X117752952Y-141787523D01*
X117705333Y-141692285D01*
X117657714Y-141501809D01*
X117657714Y-141358952D01*
X117705333Y-141168476D01*
X117752952Y-141073238D01*
X117848190Y-140978000D01*
X117991047Y-140930380D01*
X118086285Y-140930380D01*
X118229142Y-140978000D01*
X118276761Y-141025619D01*
X119181523Y-141930380D02*
X118705333Y-141930380D01*
X118705333Y-140930380D01*
X119514857Y-141930380D02*
X119514857Y-140930380D01*
X120086285Y-141930380D02*
X119657714Y-141358952D01*
X120086285Y-140930380D02*
X119514857Y-141501809D01*
X118252952Y-144724380D02*
X117919619Y-144248190D01*
X117681523Y-144724380D02*
X117681523Y-143724380D01*
X118062476Y-143724380D01*
X118157714Y-143772000D01*
X118205333Y-143819619D01*
X118252952Y-143914857D01*
X118252952Y-144057714D01*
X118205333Y-144152952D01*
X118157714Y-144200571D01*
X118062476Y-144248190D01*
X117681523Y-144248190D01*
X118681523Y-144200571D02*
X119014857Y-144200571D01*
X119157714Y-144724380D02*
X118681523Y-144724380D01*
X118681523Y-143724380D01*
X119157714Y-143724380D01*
X119538666Y-144676761D02*
X119681523Y-144724380D01*
X119919619Y-144724380D01*
X120014857Y-144676761D01*
X120062476Y-144629142D01*
X120110095Y-144533904D01*
X120110095Y-144438666D01*
X120062476Y-144343428D01*
X120014857Y-144295809D01*
X119919619Y-144248190D01*
X119729142Y-144200571D01*
X119633904Y-144152952D01*
X119586285Y-144105333D01*
X119538666Y-144010095D01*
X119538666Y-143914857D01*
X119586285Y-143819619D01*
X119633904Y-143772000D01*
X119729142Y-143724380D01*
X119967238Y-143724380D01*
X120110095Y-143772000D01*
X118808571Y-139263380D02*
X118808571Y-138263380D01*
X119141904Y-138977666D01*
X119475238Y-138263380D01*
X119475238Y-139263380D01*
X119951428Y-139263380D02*
X119951428Y-138263380D01*
D12*
X104747200Y-115214400D02*
G75*
G03*
X104747200Y-115214400I-150000J0D01*
G01*
D13*
X104597200Y-108407200D02*
X104597200Y-115214400D01*
D14*
X100820428Y-143036952D02*
X100858523Y-143036952D01*
X100896619Y-143056000D01*
X100915666Y-143075047D01*
X100934714Y-143113142D01*
X100953761Y-143189333D01*
X100953761Y-143284571D01*
X100934714Y-143360761D01*
X100915666Y-143398857D01*
X100896619Y-143417904D01*
X100858523Y-143436952D01*
X100820428Y-143436952D01*
X100782333Y-143417904D01*
X100763285Y-143398857D01*
X100744238Y-143360761D01*
X100725190Y-143284571D01*
X100725190Y-143189333D01*
X100744238Y-143113142D01*
X100763285Y-143075047D01*
X100782333Y-143056000D01*
X100820428Y-143036952D01*
X101182333Y-143208380D02*
X101144238Y-143189333D01*
X101125190Y-143170285D01*
X101106142Y-143132190D01*
X101106142Y-143113142D01*
X101125190Y-143075047D01*
X101144238Y-143056000D01*
X101182333Y-143036952D01*
X101258523Y-143036952D01*
X101296619Y-143056000D01*
X101315666Y-143075047D01*
X101334714Y-143113142D01*
X101334714Y-143132190D01*
X101315666Y-143170285D01*
X101296619Y-143189333D01*
X101258523Y-143208380D01*
X101182333Y-143208380D01*
X101144238Y-143227428D01*
X101125190Y-143246476D01*
X101106142Y-143284571D01*
X101106142Y-143360761D01*
X101125190Y-143398857D01*
X101144238Y-143417904D01*
X101182333Y-143436952D01*
X101258523Y-143436952D01*
X101296619Y-143417904D01*
X101315666Y-143398857D01*
X101334714Y-143360761D01*
X101334714Y-143284571D01*
X101315666Y-143246476D01*
X101296619Y-143227428D01*
X101258523Y-143208380D01*
X101791857Y-143017904D02*
X101449000Y-143532190D01*
X102134714Y-143436952D02*
X101906142Y-143436952D01*
X102020428Y-143436952D02*
X102020428Y-143036952D01*
X101982333Y-143094095D01*
X101944238Y-143132190D01*
X101906142Y-143151238D01*
X102515666Y-143436952D02*
X102287095Y-143436952D01*
X102401380Y-143436952D02*
X102401380Y-143036952D01*
X102363285Y-143094095D01*
X102325190Y-143132190D01*
X102287095Y-143151238D01*
X102972809Y-143017904D02*
X102629952Y-143532190D01*
X103087095Y-143075047D02*
X103106142Y-143056000D01*
X103144238Y-143036952D01*
X103239476Y-143036952D01*
X103277571Y-143056000D01*
X103296619Y-143075047D01*
X103315666Y-143113142D01*
X103315666Y-143151238D01*
X103296619Y-143208380D01*
X103068047Y-143436952D01*
X103315666Y-143436952D01*
X103696619Y-143436952D02*
X103468047Y-143436952D01*
X103582333Y-143436952D02*
X103582333Y-143036952D01*
X103544238Y-143094095D01*
X103506142Y-143132190D01*
X103468047Y-143151238D01*
D15*
X100744976Y-144930761D02*
X100887833Y-144978380D01*
X101125928Y-144978380D01*
X101221166Y-144930761D01*
X101268785Y-144883142D01*
X101316404Y-144787904D01*
X101316404Y-144692666D01*
X101268785Y-144597428D01*
X101221166Y-144549809D01*
X101125928Y-144502190D01*
X100935452Y-144454571D01*
X100840214Y-144406952D01*
X100792595Y-144359333D01*
X100744976Y-144264095D01*
X100744976Y-144168857D01*
X100792595Y-144073619D01*
X100840214Y-144026000D01*
X100935452Y-143978380D01*
X101173547Y-143978380D01*
X101316404Y-144026000D01*
X101887833Y-144978380D02*
X101792595Y-144930761D01*
X101744976Y-144883142D01*
X101697357Y-144787904D01*
X101697357Y-144502190D01*
X101744976Y-144406952D01*
X101792595Y-144359333D01*
X101887833Y-144311714D01*
X102030690Y-144311714D01*
X102125928Y-144359333D01*
X102173547Y-144406952D01*
X102221166Y-144502190D01*
X102221166Y-144787904D01*
X102173547Y-144883142D01*
X102125928Y-144930761D01*
X102030690Y-144978380D01*
X101887833Y-144978380D01*
X103078309Y-144311714D02*
X103078309Y-144978380D01*
X102649738Y-144311714D02*
X102649738Y-144835523D01*
X102697357Y-144930761D01*
X102792595Y-144978380D01*
X102935452Y-144978380D01*
X103030690Y-144930761D01*
X103078309Y-144883142D01*
X103697357Y-144978380D02*
X103602119Y-144930761D01*
X103554500Y-144835523D01*
X103554500Y-143978380D01*
X104221166Y-144978380D02*
X104125928Y-144930761D01*
X104078309Y-144835523D01*
X104078309Y-143978380D01*
X104983071Y-144930761D02*
X104887833Y-144978380D01*
X104697357Y-144978380D01*
X104602119Y-144930761D01*
X104554500Y-144835523D01*
X104554500Y-144454571D01*
X104602119Y-144359333D01*
X104697357Y-144311714D01*
X104887833Y-144311714D01*
X104983071Y-144359333D01*
X105030690Y-144454571D01*
X105030690Y-144549809D01*
X104554500Y-144645047D01*
X105411642Y-144930761D02*
X105506880Y-144978380D01*
X105697357Y-144978380D01*
X105792595Y-144930761D01*
X105840214Y-144835523D01*
X105840214Y-144787904D01*
X105792595Y-144692666D01*
X105697357Y-144645047D01*
X105554500Y-144645047D01*
X105459261Y-144597428D01*
X105411642Y-144502190D01*
X105411642Y-144454571D01*
X105459261Y-144359333D01*
X105554500Y-144311714D01*
X105697357Y-144311714D01*
X105792595Y-144359333D01*
X106221166Y-144930761D02*
X106316404Y-144978380D01*
X106506880Y-144978380D01*
X106602119Y-144930761D01*
X106649738Y-144835523D01*
X106649738Y-144787904D01*
X106602119Y-144692666D01*
X106506880Y-144645047D01*
X106364023Y-144645047D01*
X106268785Y-144597428D01*
X106221166Y-144502190D01*
X106221166Y-144454571D01*
X106268785Y-144359333D01*
X106364023Y-144311714D01*
X106506880Y-144311714D01*
X106602119Y-144359333D01*
X107078309Y-144883142D02*
X107125928Y-144930761D01*
X107078309Y-144978380D01*
X107030690Y-144930761D01*
X107078309Y-144883142D01*
X107078309Y-144978380D01*
X107983071Y-144978380D02*
X107983071Y-143978380D01*
X107983071Y-144930761D02*
X107887833Y-144978380D01*
X107697357Y-144978380D01*
X107602119Y-144930761D01*
X107554500Y-144883142D01*
X107506880Y-144787904D01*
X107506880Y-144502190D01*
X107554500Y-144406952D01*
X107602119Y-144359333D01*
X107697357Y-144311714D01*
X107887833Y-144311714D01*
X107983071Y-144359333D01*
X108459261Y-144978380D02*
X108459261Y-144311714D01*
X108459261Y-143978380D02*
X108411642Y-144026000D01*
X108459261Y-144073619D01*
X108506880Y-144026000D01*
X108459261Y-143978380D01*
X108459261Y-144073619D01*
X109364023Y-144311714D02*
X109364023Y-145121238D01*
X109316404Y-145216476D01*
X109268785Y-145264095D01*
X109173547Y-145311714D01*
X109030690Y-145311714D01*
X108935452Y-145264095D01*
X109364023Y-144930761D02*
X109268785Y-144978380D01*
X109078309Y-144978380D01*
X108983071Y-144930761D01*
X108935452Y-144883142D01*
X108887833Y-144787904D01*
X108887833Y-144502190D01*
X108935452Y-144406952D01*
X108983071Y-144359333D01*
X109078309Y-144311714D01*
X109268785Y-144311714D01*
X109364023Y-144359333D01*
X109840214Y-144978380D02*
X109840214Y-144311714D01*
X109840214Y-143978380D02*
X109792595Y-144026000D01*
X109840214Y-144073619D01*
X109887833Y-144026000D01*
X109840214Y-143978380D01*
X109840214Y-144073619D01*
X110173547Y-144311714D02*
X110554500Y-144311714D01*
X110316404Y-143978380D02*
X110316404Y-144835523D01*
X110364023Y-144930761D01*
X110459261Y-144978380D01*
X110554500Y-144978380D01*
X111316404Y-144978380D02*
X111316404Y-144454571D01*
X111268785Y-144359333D01*
X111173547Y-144311714D01*
X110983071Y-144311714D01*
X110887833Y-144359333D01*
X111316404Y-144930761D02*
X111221166Y-144978380D01*
X110983071Y-144978380D01*
X110887833Y-144930761D01*
X110840214Y-144835523D01*
X110840214Y-144740285D01*
X110887833Y-144645047D01*
X110983071Y-144597428D01*
X111221166Y-144597428D01*
X111316404Y-144549809D01*
X111935452Y-144978380D02*
X111840214Y-144930761D01*
X111792595Y-144835523D01*
X111792595Y-143978380D01*
X127831885Y-109682019D02*
X127879504Y-109634400D01*
X127974742Y-109586780D01*
X128212838Y-109586780D01*
X128308076Y-109634400D01*
X128355695Y-109682019D01*
X128403314Y-109777257D01*
X128403314Y-109872495D01*
X128355695Y-110015352D01*
X127784266Y-110586780D01*
X128403314Y-110586780D01*
X128555714Y-113329980D02*
X127984285Y-113329980D01*
X128270000Y-113329980D02*
X128270000Y-112329980D01*
X128174761Y-112472838D01*
X128079523Y-112568076D01*
X127984285Y-112615695D01*
X92151295Y-112374419D02*
X92198914Y-112326800D01*
X92294152Y-112279180D01*
X92532247Y-112279180D01*
X92627485Y-112326800D01*
X92675104Y-112374419D01*
X92722723Y-112469657D01*
X92722723Y-112564895D01*
X92675104Y-112707752D01*
X92103676Y-113279180D01*
X92722723Y-113279180D01*
X93627485Y-112279180D02*
X93151295Y-112279180D01*
X93103676Y-112755371D01*
X93151295Y-112707752D01*
X93246533Y-112660133D01*
X93484628Y-112660133D01*
X93579866Y-112707752D01*
X93627485Y-112755371D01*
X93675104Y-112850609D01*
X93675104Y-113088704D01*
X93627485Y-113183942D01*
X93579866Y-113231561D01*
X93484628Y-113279180D01*
X93246533Y-113279180D01*
X93151295Y-113231561D01*
X93103676Y-113183942D01*
X92202095Y-109885219D02*
X92249714Y-109837600D01*
X92344952Y-109789980D01*
X92583047Y-109789980D01*
X92678285Y-109837600D01*
X92725904Y-109885219D01*
X92773523Y-109980457D01*
X92773523Y-110075695D01*
X92725904Y-110218552D01*
X92154476Y-110789980D01*
X92773523Y-110789980D01*
X93630666Y-109789980D02*
X93440190Y-109789980D01*
X93344952Y-109837600D01*
X93297333Y-109885219D01*
X93202095Y-110028076D01*
X93154476Y-110218552D01*
X93154476Y-110599504D01*
X93202095Y-110694742D01*
X93249714Y-110742361D01*
X93344952Y-110789980D01*
X93535428Y-110789980D01*
X93630666Y-110742361D01*
X93678285Y-110694742D01*
X93725904Y-110599504D01*
X93725904Y-110361409D01*
X93678285Y-110266171D01*
X93630666Y-110218552D01*
X93535428Y-110170933D01*
X93344952Y-110170933D01*
X93249714Y-110218552D01*
X93202095Y-110266171D01*
X93154476Y-110361409D01*
X87421980Y-119875276D02*
X87421980Y-119684800D01*
X87374361Y-119589561D01*
X87326742Y-119541942D01*
X87183885Y-119446704D01*
X86993409Y-119399085D01*
X86612457Y-119399085D01*
X86517219Y-119446704D01*
X86469600Y-119494323D01*
X86421980Y-119589561D01*
X86421980Y-119780038D01*
X86469600Y-119875276D01*
X86517219Y-119922895D01*
X86612457Y-119970514D01*
X86850552Y-119970514D01*
X86945790Y-119922895D01*
X86993409Y-119875276D01*
X87041028Y-119780038D01*
X87041028Y-119589561D01*
X86993409Y-119494323D01*
X86945790Y-119446704D01*
X86850552Y-119399085D01*
X84729580Y-119824476D02*
X84729580Y-120395904D01*
X84729580Y-120110190D02*
X83729580Y-120110190D01*
X83872438Y-120205428D01*
X83967676Y-120300666D01*
X84015295Y-120395904D01*
X83729580Y-119205428D02*
X83729580Y-119110190D01*
X83777200Y-119014952D01*
X83824819Y-118967333D01*
X83920057Y-118919714D01*
X84110533Y-118872095D01*
X84348628Y-118872095D01*
X84539104Y-118919714D01*
X84634342Y-118967333D01*
X84681961Y-119014952D01*
X84729580Y-119110190D01*
X84729580Y-119205428D01*
X84681961Y-119300666D01*
X84634342Y-119348285D01*
X84539104Y-119395904D01*
X84348628Y-119443523D01*
X84110533Y-119443523D01*
X83920057Y-119395904D01*
X83824819Y-119348285D01*
X83777200Y-119300666D01*
X83729580Y-119205428D01*
X83977219Y-134042114D02*
X83929600Y-133994495D01*
X83881980Y-133899257D01*
X83881980Y-133661161D01*
X83929600Y-133565923D01*
X83977219Y-133518304D01*
X84072457Y-133470685D01*
X84167695Y-133470685D01*
X84310552Y-133518304D01*
X84881980Y-134089733D01*
X84881980Y-133470685D01*
X87421980Y-133369085D02*
X87421980Y-133940514D01*
X87421980Y-133654800D02*
X86421980Y-133654800D01*
X86564838Y-133750038D01*
X86660076Y-133845276D01*
X86707695Y-133940514D01*
X127381047Y-138755428D02*
X128142952Y-138755428D01*
X127762000Y-139136380D02*
X127762000Y-138374476D01*
X127706428Y-144271952D02*
X127706428Y-143510047D01*
D13*
X74997000Y-140021000D02*
X74997000Y-142681000D01*
X77597000Y-140021000D02*
X74997000Y-140021000D01*
X77597000Y-142681000D02*
X74997000Y-142681000D01*
X77597000Y-140021000D02*
X77597000Y-142681000D01*
X78867000Y-140021000D02*
X80197000Y-140021000D01*
X80197000Y-140021000D02*
X80197000Y-141351000D01*
X90090258Y-112536500D02*
X89615742Y-112536500D01*
X90090258Y-111491500D02*
X89615742Y-111491500D01*
X89615742Y-109840500D02*
X90090258Y-109840500D01*
X89615742Y-110885500D02*
X90090258Y-110885500D01*
X82661500Y-128986500D02*
X73541500Y-128986500D01*
X82661500Y-124886500D02*
X73541500Y-124886500D01*
X82661500Y-137226500D02*
X73541500Y-137226500D01*
X73541500Y-137226500D02*
X73541500Y-116646500D01*
X73541500Y-116646500D02*
X82661500Y-116646500D01*
X82661500Y-116646500D02*
X82661500Y-137226500D01*
X88281500Y-132016500D02*
X89281500Y-132516500D01*
X89281500Y-132516500D02*
X89281500Y-131516500D01*
X89281500Y-131516500D02*
X88281500Y-132016500D01*
X121098000Y-145221000D02*
X126298000Y-145221000D01*
X121098000Y-140081000D02*
X121098000Y-145221000D01*
X126298000Y-137481000D02*
X126298000Y-145221000D01*
X121098000Y-140081000D02*
X123698000Y-140081000D01*
X123698000Y-140081000D02*
X123698000Y-137481000D01*
X123698000Y-137481000D02*
X126298000Y-137481000D01*
X121098000Y-138811000D02*
X121098000Y-137481000D01*
X121098000Y-137481000D02*
X122428000Y-137481000D01*
X111263000Y-135090000D02*
X107263000Y-135090000D01*
X111263000Y-138390000D02*
X111263000Y-135090000D01*
X81601000Y-140021000D02*
X81601000Y-142681000D01*
X84201000Y-140021000D02*
X81601000Y-140021000D01*
X84201000Y-142681000D02*
X81601000Y-142681000D01*
X84201000Y-140021000D02*
X84201000Y-142681000D01*
X85471000Y-140021000D02*
X86801000Y-140021000D01*
X86801000Y-140021000D02*
X86801000Y-141351000D01*
X93361574Y-122053175D02*
X93131369Y-122283380D01*
X92640325Y-121331926D02*
X92410120Y-121562131D01*
X97036478Y-117697773D02*
X96806273Y-117927978D01*
X97757727Y-118419022D02*
X97527522Y-118649227D01*
X112723200Y-136840279D02*
X112723200Y-136514721D01*
X113743200Y-136840279D02*
X113743200Y-136514721D01*
X108663200Y-140675579D02*
X108663200Y-140350021D01*
X107643200Y-140675579D02*
X107643200Y-140350021D01*
X96649000Y-134736721D02*
X96649000Y-135062279D01*
X95629000Y-134736721D02*
X95629000Y-135062279D01*
X110170500Y-120144221D02*
X110170500Y-120469779D01*
X111190500Y-120144221D02*
X111190500Y-120469779D01*
X110170500Y-123962279D02*
X110170500Y-123636721D01*
X111190500Y-123962279D02*
X111190500Y-123636721D01*
X96837500Y-140403000D02*
X96457500Y-140403000D01*
X96837500Y-144453000D02*
X96837500Y-144713000D01*
X96837500Y-140403000D02*
X96837500Y-142173000D01*
X89217500Y-140403000D02*
X89597500Y-140403000D01*
X89217500Y-142173000D02*
X89217500Y-140403000D01*
X89217500Y-144713000D02*
X89217500Y-144453000D01*
X104142000Y-136082721D02*
X104142000Y-136408279D01*
X103122000Y-136082721D02*
X103122000Y-136408279D01*
X113472279Y-131887500D02*
X113146721Y-131887500D01*
X113472279Y-132907500D02*
X113146721Y-132907500D01*
X113472279Y-131193000D02*
X113146721Y-131193000D01*
X113472279Y-130173000D02*
X113146721Y-130173000D01*
X104891721Y-119318500D02*
X105217279Y-119318500D01*
X104891721Y-118298500D02*
X105217279Y-118298500D01*
X91120500Y-136971721D02*
X91120500Y-137297279D01*
X92140500Y-136971721D02*
X92140500Y-137297279D01*
X94363000Y-136908221D02*
X94363000Y-137233779D01*
X93343000Y-136908221D02*
X93343000Y-137233779D01*
X118755500Y-116847000D02*
X117255500Y-116847000D01*
X117255500Y-116847000D02*
X117255500Y-118657000D01*
X117255500Y-118657000D02*
X112130500Y-118657000D01*
X118755500Y-127247000D02*
X117255500Y-127247000D01*
X117255500Y-127247000D02*
X117255500Y-125437000D01*
X117255500Y-125437000D02*
X116155500Y-125437000D01*
D15*
X93354531Y-127279586D02*
X92452970Y-128181148D01*
X100266500Y-119554445D02*
X99789203Y-120031742D01*
X107585055Y-126873000D02*
X107107758Y-127350297D01*
X100266500Y-134191555D02*
X100743797Y-133714258D01*
X92947945Y-126873000D02*
X93425242Y-126395703D01*
X100266500Y-134191555D02*
X99789203Y-133714258D01*
X107585055Y-126873000D02*
X107107758Y-126395703D01*
X100266500Y-119554445D02*
X100743797Y-120031742D01*
X92947945Y-126873000D02*
X93354531Y-127279586D01*
X77136666Y-143597380D02*
X77136666Y-144311666D01*
X77089047Y-144454523D01*
X76993809Y-144549761D01*
X76850952Y-144597380D01*
X76755714Y-144597380D01*
X77755714Y-144025952D02*
X77660476Y-143978333D01*
X77612857Y-143930714D01*
X77565238Y-143835476D01*
X77565238Y-143787857D01*
X77612857Y-143692619D01*
X77660476Y-143645000D01*
X77755714Y-143597380D01*
X77946190Y-143597380D01*
X78041428Y-143645000D01*
X78089047Y-143692619D01*
X78136666Y-143787857D01*
X78136666Y-143835476D01*
X78089047Y-143930714D01*
X78041428Y-143978333D01*
X77946190Y-144025952D01*
X77755714Y-144025952D01*
X77660476Y-144073571D01*
X77612857Y-144121190D01*
X77565238Y-144216428D01*
X77565238Y-144406904D01*
X77612857Y-144502142D01*
X77660476Y-144549761D01*
X77755714Y-144597380D01*
X77946190Y-144597380D01*
X78041428Y-144549761D01*
X78089047Y-144502142D01*
X78136666Y-144406904D01*
X78136666Y-144216428D01*
X78089047Y-144121190D01*
X78041428Y-144073571D01*
X77946190Y-144025952D01*
X89622333Y-114117380D02*
X89289000Y-113641190D01*
X89050904Y-114117380D02*
X89050904Y-113117380D01*
X89431857Y-113117380D01*
X89527095Y-113165000D01*
X89574714Y-113212619D01*
X89622333Y-113307857D01*
X89622333Y-113450714D01*
X89574714Y-113545952D01*
X89527095Y-113593571D01*
X89431857Y-113641190D01*
X89050904Y-113641190D01*
X89955666Y-113117380D02*
X90622333Y-113117380D01*
X90193761Y-114117380D01*
X89749333Y-109291380D02*
X89416000Y-108815190D01*
X89177904Y-109291380D02*
X89177904Y-108291380D01*
X89558857Y-108291380D01*
X89654095Y-108339000D01*
X89701714Y-108386619D01*
X89749333Y-108481857D01*
X89749333Y-108624714D01*
X89701714Y-108719952D01*
X89654095Y-108767571D01*
X89558857Y-108815190D01*
X89177904Y-108815190D01*
X90320761Y-108719952D02*
X90225523Y-108672333D01*
X90177904Y-108624714D01*
X90130285Y-108529476D01*
X90130285Y-108481857D01*
X90177904Y-108386619D01*
X90225523Y-108339000D01*
X90320761Y-108291380D01*
X90511238Y-108291380D01*
X90606476Y-108339000D01*
X90654095Y-108386619D01*
X90701714Y-108481857D01*
X90701714Y-108529476D01*
X90654095Y-108624714D01*
X90606476Y-108672333D01*
X90511238Y-108719952D01*
X90320761Y-108719952D01*
X90225523Y-108767571D01*
X90177904Y-108815190D01*
X90130285Y-108910428D01*
X90130285Y-109100904D01*
X90177904Y-109196142D01*
X90225523Y-109243761D01*
X90320761Y-109291380D01*
X90511238Y-109291380D01*
X90606476Y-109243761D01*
X90654095Y-109196142D01*
X90701714Y-109100904D01*
X90701714Y-108910428D01*
X90654095Y-108815190D01*
X90606476Y-108767571D01*
X90511238Y-108719952D01*
X75652380Y-127206333D02*
X76366666Y-127206333D01*
X76509523Y-127253952D01*
X76604761Y-127349190D01*
X76652380Y-127492047D01*
X76652380Y-127587285D01*
X75985714Y-126301571D02*
X76652380Y-126301571D01*
X75604761Y-126539666D02*
X76319047Y-126777761D01*
X76319047Y-126158714D01*
X121078666Y-135723380D02*
X121078666Y-136437666D01*
X121031047Y-136580523D01*
X120935809Y-136675761D01*
X120792952Y-136723380D01*
X120697714Y-136723380D01*
X121507238Y-135818619D02*
X121554857Y-135771000D01*
X121650095Y-135723380D01*
X121888190Y-135723380D01*
X121983428Y-135771000D01*
X122031047Y-135818619D01*
X122078666Y-135913857D01*
X122078666Y-136009095D01*
X122031047Y-136151952D01*
X121459619Y-136723380D01*
X122078666Y-136723380D01*
X107600809Y-134088190D02*
X107600809Y-134564380D01*
X107267476Y-133564380D02*
X107600809Y-134088190D01*
X107934142Y-133564380D01*
X108791285Y-134564380D02*
X108219857Y-134564380D01*
X108505571Y-134564380D02*
X108505571Y-133564380D01*
X108410333Y-133707238D01*
X108315095Y-133802476D01*
X108219857Y-133850095D01*
X83994666Y-143470380D02*
X83994666Y-144184666D01*
X83947047Y-144327523D01*
X83851809Y-144422761D01*
X83708952Y-144470380D01*
X83613714Y-144470380D01*
X84375619Y-143470380D02*
X85042285Y-143470380D01*
X84613714Y-144470380D01*
X91320687Y-123915989D02*
X91320687Y-123983332D01*
X91253343Y-124118019D01*
X91186000Y-124185363D01*
X91051312Y-124252706D01*
X90916625Y-124252706D01*
X90815610Y-124219035D01*
X90647251Y-124118019D01*
X90546236Y-124017004D01*
X90445221Y-123848645D01*
X90411549Y-123747630D01*
X90411549Y-123612943D01*
X90478893Y-123478256D01*
X90546236Y-123410912D01*
X90680923Y-123343569D01*
X90748267Y-123343569D01*
X92061465Y-123309897D02*
X91657404Y-123713958D01*
X91859435Y-123511928D02*
X91152328Y-122804821D01*
X91186000Y-122973180D01*
X91186000Y-123107867D01*
X91152328Y-123208882D01*
X95689487Y-120207589D02*
X95689487Y-120274932D01*
X95622143Y-120409619D01*
X95554800Y-120476963D01*
X95420112Y-120544306D01*
X95285425Y-120544306D01*
X95184410Y-120510635D01*
X95016051Y-120409619D01*
X94915036Y-120308604D01*
X94814021Y-120140245D01*
X94780349Y-120039230D01*
X94780349Y-119904543D01*
X94847693Y-119769856D01*
X94915036Y-119702512D01*
X95049723Y-119635169D01*
X95117067Y-119635169D01*
X95386441Y-119365795D02*
X95386441Y-119298451D01*
X95420112Y-119197436D01*
X95588471Y-119029077D01*
X95689487Y-118995406D01*
X95756830Y-118995406D01*
X95857845Y-119029077D01*
X95925189Y-119096421D01*
X95992532Y-119231108D01*
X95992532Y-120039230D01*
X96430265Y-119601497D01*
X113641142Y-139485666D02*
X113688761Y-139533285D01*
X113736380Y-139676142D01*
X113736380Y-139771380D01*
X113688761Y-139914238D01*
X113593523Y-140009476D01*
X113498285Y-140057095D01*
X113307809Y-140104714D01*
X113164952Y-140104714D01*
X112974476Y-140057095D01*
X112879238Y-140009476D01*
X112784000Y-139914238D01*
X112736380Y-139771380D01*
X112736380Y-139676142D01*
X112784000Y-139533285D01*
X112831619Y-139485666D01*
X112736380Y-139152333D02*
X112736380Y-138533285D01*
X113117333Y-138866619D01*
X113117333Y-138723761D01*
X113164952Y-138628523D01*
X113212571Y-138580904D01*
X113307809Y-138533285D01*
X113545904Y-138533285D01*
X113641142Y-138580904D01*
X113688761Y-138628523D01*
X113736380Y-138723761D01*
X113736380Y-139009476D01*
X113688761Y-139104714D01*
X113641142Y-139152333D01*
X107080342Y-140679466D02*
X107127961Y-140727085D01*
X107175580Y-140869942D01*
X107175580Y-140965180D01*
X107127961Y-141108038D01*
X107032723Y-141203276D01*
X106937485Y-141250895D01*
X106747009Y-141298514D01*
X106604152Y-141298514D01*
X106413676Y-141250895D01*
X106318438Y-141203276D01*
X106223200Y-141108038D01*
X106175580Y-140965180D01*
X106175580Y-140869942D01*
X106223200Y-140727085D01*
X106270819Y-140679466D01*
X106508914Y-139822323D02*
X107175580Y-139822323D01*
X106127961Y-140060419D02*
X106842247Y-140298514D01*
X106842247Y-139679466D01*
X97131142Y-137707666D02*
X97178761Y-137755285D01*
X97226380Y-137898142D01*
X97226380Y-137993380D01*
X97178761Y-138136238D01*
X97083523Y-138231476D01*
X96988285Y-138279095D01*
X96797809Y-138326714D01*
X96654952Y-138326714D01*
X96464476Y-138279095D01*
X96369238Y-138231476D01*
X96274000Y-138136238D01*
X96226380Y-137993380D01*
X96226380Y-137898142D01*
X96274000Y-137755285D01*
X96321619Y-137707666D01*
X96226380Y-136802904D02*
X96226380Y-137279095D01*
X96702571Y-137326714D01*
X96654952Y-137279095D01*
X96607333Y-137183857D01*
X96607333Y-136945761D01*
X96654952Y-136850523D01*
X96702571Y-136802904D01*
X96797809Y-136755285D01*
X97035904Y-136755285D01*
X97131142Y-136802904D01*
X97178761Y-136850523D01*
X97226380Y-136945761D01*
X97226380Y-137183857D01*
X97178761Y-137279095D01*
X97131142Y-137326714D01*
X108764342Y-120359466D02*
X108811961Y-120407085D01*
X108859580Y-120549942D01*
X108859580Y-120645180D01*
X108811961Y-120788038D01*
X108716723Y-120883276D01*
X108621485Y-120930895D01*
X108431009Y-120978514D01*
X108288152Y-120978514D01*
X108097676Y-120930895D01*
X108002438Y-120883276D01*
X107907200Y-120788038D01*
X107859580Y-120645180D01*
X107859580Y-120549942D01*
X107907200Y-120407085D01*
X107954819Y-120359466D01*
X107859580Y-119502323D02*
X107859580Y-119692800D01*
X107907200Y-119788038D01*
X107954819Y-119835657D01*
X108097676Y-119930895D01*
X108288152Y-119978514D01*
X108669104Y-119978514D01*
X108764342Y-119930895D01*
X108811961Y-119883276D01*
X108859580Y-119788038D01*
X108859580Y-119597561D01*
X108811961Y-119502323D01*
X108764342Y-119454704D01*
X108669104Y-119407085D01*
X108431009Y-119407085D01*
X108335771Y-119454704D01*
X108288152Y-119502323D01*
X108240533Y-119597561D01*
X108240533Y-119788038D01*
X108288152Y-119883276D01*
X108335771Y-119930895D01*
X108431009Y-119978514D01*
X108815142Y-123305866D02*
X108862761Y-123353485D01*
X108910380Y-123496342D01*
X108910380Y-123591580D01*
X108862761Y-123734438D01*
X108767523Y-123829676D01*
X108672285Y-123877295D01*
X108481809Y-123924914D01*
X108338952Y-123924914D01*
X108148476Y-123877295D01*
X108053238Y-123829676D01*
X107958000Y-123734438D01*
X107910380Y-123591580D01*
X107910380Y-123496342D01*
X107958000Y-123353485D01*
X108005619Y-123305866D01*
X107910380Y-122972533D02*
X107910380Y-122305866D01*
X108910380Y-122734438D01*
X97456666Y-140295380D02*
X97456666Y-141009666D01*
X97409047Y-141152523D01*
X97313809Y-141247761D01*
X97170952Y-141295380D01*
X97075714Y-141295380D01*
X98456666Y-141295380D02*
X97885238Y-141295380D01*
X98170952Y-141295380D02*
X98170952Y-140295380D01*
X98075714Y-140438238D01*
X97980476Y-140533476D01*
X97885238Y-140581095D01*
X105514380Y-136412166D02*
X105038190Y-136745500D01*
X105514380Y-136983595D02*
X104514380Y-136983595D01*
X104514380Y-136602642D01*
X104562000Y-136507404D01*
X104609619Y-136459785D01*
X104704857Y-136412166D01*
X104847714Y-136412166D01*
X104942952Y-136459785D01*
X104990571Y-136507404D01*
X105038190Y-136602642D01*
X105038190Y-136983595D01*
X105514380Y-135459785D02*
X105514380Y-136031214D01*
X105514380Y-135745500D02*
X104514380Y-135745500D01*
X104657238Y-135840738D01*
X104752476Y-135935976D01*
X104800095Y-136031214D01*
X110526533Y-132938780D02*
X110193200Y-132462590D01*
X109955104Y-132938780D02*
X109955104Y-131938780D01*
X110336057Y-131938780D01*
X110431295Y-131986400D01*
X110478914Y-132034019D01*
X110526533Y-132129257D01*
X110526533Y-132272114D01*
X110478914Y-132367352D01*
X110431295Y-132414971D01*
X110336057Y-132462590D01*
X109955104Y-132462590D01*
X110907485Y-132034019D02*
X110955104Y-131986400D01*
X111050342Y-131938780D01*
X111288438Y-131938780D01*
X111383676Y-131986400D01*
X111431295Y-132034019D01*
X111478914Y-132129257D01*
X111478914Y-132224495D01*
X111431295Y-132367352D01*
X110859866Y-132938780D01*
X111478914Y-132938780D01*
X110475733Y-131211580D02*
X110142400Y-130735390D01*
X109904304Y-131211580D02*
X109904304Y-130211580D01*
X110285257Y-130211580D01*
X110380495Y-130259200D01*
X110428114Y-130306819D01*
X110475733Y-130402057D01*
X110475733Y-130544914D01*
X110428114Y-130640152D01*
X110380495Y-130687771D01*
X110285257Y-130735390D01*
X109904304Y-130735390D01*
X110809066Y-130211580D02*
X111428114Y-130211580D01*
X111094780Y-130592533D01*
X111237638Y-130592533D01*
X111332876Y-130640152D01*
X111380495Y-130687771D01*
X111428114Y-130783009D01*
X111428114Y-131021104D01*
X111380495Y-131116342D01*
X111332876Y-131163961D01*
X111237638Y-131211580D01*
X110951923Y-131211580D01*
X110856685Y-131163961D01*
X110809066Y-131116342D01*
X104887833Y-117830880D02*
X104554500Y-117354690D01*
X104316404Y-117830880D02*
X104316404Y-116830880D01*
X104697357Y-116830880D01*
X104792595Y-116878500D01*
X104840214Y-116926119D01*
X104887833Y-117021357D01*
X104887833Y-117164214D01*
X104840214Y-117259452D01*
X104792595Y-117307071D01*
X104697357Y-117354690D01*
X104316404Y-117354690D01*
X105744976Y-117164214D02*
X105744976Y-117830880D01*
X105506880Y-116783261D02*
X105268785Y-117497547D01*
X105887833Y-117497547D01*
X92095580Y-134685066D02*
X91619390Y-135018400D01*
X92095580Y-135256495D02*
X91095580Y-135256495D01*
X91095580Y-134875542D01*
X91143200Y-134780304D01*
X91190819Y-134732685D01*
X91286057Y-134685066D01*
X91428914Y-134685066D01*
X91524152Y-134732685D01*
X91571771Y-134780304D01*
X91619390Y-134875542D01*
X91619390Y-135256495D01*
X91095580Y-133780304D02*
X91095580Y-134256495D01*
X91571771Y-134304114D01*
X91524152Y-134256495D01*
X91476533Y-134161257D01*
X91476533Y-133923161D01*
X91524152Y-133827923D01*
X91571771Y-133780304D01*
X91667009Y-133732685D01*
X91905104Y-133732685D01*
X92000342Y-133780304D01*
X92047961Y-133827923D01*
X92095580Y-133923161D01*
X92095580Y-134161257D01*
X92047961Y-134256495D01*
X92000342Y-134304114D01*
X94330780Y-134634266D02*
X93854590Y-134967600D01*
X94330780Y-135205695D02*
X93330780Y-135205695D01*
X93330780Y-134824742D01*
X93378400Y-134729504D01*
X93426019Y-134681885D01*
X93521257Y-134634266D01*
X93664114Y-134634266D01*
X93759352Y-134681885D01*
X93806971Y-134729504D01*
X93854590Y-134824742D01*
X93854590Y-135205695D01*
X93330780Y-133777123D02*
X93330780Y-133967600D01*
X93378400Y-134062838D01*
X93426019Y-134110457D01*
X93568876Y-134205695D01*
X93759352Y-134253314D01*
X94140304Y-134253314D01*
X94235542Y-134205695D01*
X94283161Y-134158076D01*
X94330780Y-134062838D01*
X94330780Y-133872361D01*
X94283161Y-133777123D01*
X94235542Y-133729504D01*
X94140304Y-133681885D01*
X93902209Y-133681885D01*
X93806971Y-133729504D01*
X93759352Y-133777123D01*
X93711733Y-133872361D01*
X93711733Y-134062838D01*
X93759352Y-134158076D01*
X93806971Y-134205695D01*
X93902209Y-134253314D01*
X119443595Y-114849380D02*
X119443595Y-115658904D01*
X119491214Y-115754142D01*
X119538833Y-115801761D01*
X119634071Y-115849380D01*
X119824547Y-115849380D01*
X119919785Y-115801761D01*
X119967404Y-115754142D01*
X120015023Y-115658904D01*
X120015023Y-114849380D01*
X121015023Y-115849380D02*
X120443595Y-115849380D01*
X120729309Y-115849380D02*
X120729309Y-114849380D01*
X120634071Y-114992238D01*
X120538833Y-115087476D01*
X120443595Y-115135095D01*
X90056826Y-125881522D02*
X90629246Y-126453942D01*
X90730261Y-126487614D01*
X90797605Y-126487614D01*
X90898620Y-126453942D01*
X91033307Y-126319255D01*
X91066979Y-126218240D01*
X91066979Y-126150896D01*
X91033307Y-126049881D01*
X90460887Y-125477461D01*
X90831277Y-125241759D02*
X90831277Y-125174416D01*
X90864948Y-125073400D01*
X91033307Y-124905042D01*
X91134322Y-124871370D01*
X91201666Y-124871370D01*
X91302681Y-124905042D01*
X91370025Y-124972385D01*
X91437368Y-125107072D01*
X91437368Y-125915194D01*
X91875101Y-125477461D01*
X81962666Y-108418380D02*
X81962666Y-109132666D01*
X81915047Y-109275523D01*
X81819809Y-109370761D01*
X81676952Y-109418380D01*
X81581714Y-109418380D01*
X82915047Y-108418380D02*
X82438857Y-108418380D01*
X82391238Y-108894571D01*
X82438857Y-108846952D01*
X82534095Y-108799333D01*
X82772190Y-108799333D01*
X82867428Y-108846952D01*
X82915047Y-108894571D01*
X82962666Y-108989809D01*
X82962666Y-109227904D01*
X82915047Y-109323142D01*
X82867428Y-109370761D01*
X82772190Y-109418380D01*
X82534095Y-109418380D01*
X82438857Y-109370761D01*
X82391238Y-109323142D01*
X127428666Y-129500380D02*
X127428666Y-130214666D01*
X127381047Y-130357523D01*
X127285809Y-130452761D01*
X127142952Y-130500380D01*
X127047714Y-130500380D01*
X128333428Y-129500380D02*
X128142952Y-129500380D01*
X128047714Y-129548000D01*
X128000095Y-129595619D01*
X127904857Y-129738476D01*
X127857238Y-129928952D01*
X127857238Y-130309904D01*
X127904857Y-130405142D01*
X127952476Y-130452761D01*
X128047714Y-130500380D01*
X128238190Y-130500380D01*
X128333428Y-130452761D01*
X128381047Y-130405142D01*
X128428666Y-130309904D01*
X128428666Y-130071809D01*
X128381047Y-129976571D01*
X128333428Y-129928952D01*
X128238190Y-129881333D01*
X128047714Y-129881333D01*
X127952476Y-129928952D01*
X127904857Y-129976571D01*
X127857238Y-130071809D01*
%LPC*%
D16*
X76327000Y-141351000D03*
G36*
G01*
X78017000Y-140450000D02*
X79717000Y-140450000D01*
G75*
G02*
X79768000Y-140501000I0J-51000D01*
G01*
X79768000Y-142201000D01*
G75*
G02*
X79717000Y-142252000I-51000J0D01*
G01*
X78017000Y-142252000D01*
G75*
G02*
X77966000Y-142201000I0J51000D01*
G01*
X77966000Y-140501000D01*
G75*
G02*
X78017000Y-140450000I51000J0D01*
G01*
G37*
G36*
G01*
X89479000Y-111713500D02*
X89479000Y-112314500D01*
G75*
G02*
X89253500Y-112540000I-225500J0D01*
G01*
X88802500Y-112540000D01*
G75*
G02*
X88577000Y-112314500I0J225500D01*
G01*
X88577000Y-111713500D01*
G75*
G02*
X88802500Y-111488000I225500J0D01*
G01*
X89253500Y-111488000D01*
G75*
G02*
X89479000Y-111713500I0J-225500D01*
G01*
G37*
G36*
G01*
X91129000Y-111713500D02*
X91129000Y-112314500D01*
G75*
G02*
X90903500Y-112540000I-225500J0D01*
G01*
X90452500Y-112540000D01*
G75*
G02*
X90227000Y-112314500I0J225500D01*
G01*
X90227000Y-111713500D01*
G75*
G02*
X90452500Y-111488000I225500J0D01*
G01*
X90903500Y-111488000D01*
G75*
G02*
X91129000Y-111713500I0J-225500D01*
G01*
G37*
G36*
G01*
X90227000Y-110663500D02*
X90227000Y-110062500D01*
G75*
G02*
X90452500Y-109837000I225500J0D01*
G01*
X90903500Y-109837000D01*
G75*
G02*
X91129000Y-110062500I0J-225500D01*
G01*
X91129000Y-110663500D01*
G75*
G02*
X90903500Y-110889000I-225500J0D01*
G01*
X90452500Y-110889000D01*
G75*
G02*
X90227000Y-110663500I0J225500D01*
G01*
G37*
G36*
G01*
X88577000Y-110663500D02*
X88577000Y-110062500D01*
G75*
G02*
X88802500Y-109837000I225500J0D01*
G01*
X89253500Y-109837000D01*
G75*
G02*
X89479000Y-110062500I0J-225500D01*
G01*
X89479000Y-110663500D01*
G75*
G02*
X89253500Y-110889000I-225500J0D01*
G01*
X88802500Y-110889000D01*
G75*
G02*
X88577000Y-110663500I0J225500D01*
G01*
G37*
G36*
G01*
X87832500Y-131380500D02*
X87832500Y-132652500D01*
G75*
G02*
X87567500Y-132917500I-265000J0D01*
G01*
X86295500Y-132917500D01*
G75*
G02*
X86030500Y-132652500I0J265000D01*
G01*
X86030500Y-131380500D01*
G75*
G02*
X86295500Y-131115500I265000J0D01*
G01*
X87567500Y-131115500D01*
G75*
G02*
X87832500Y-131380500I0J-265000D01*
G01*
G37*
D17*
X86931500Y-129476500D03*
X86931500Y-126936500D03*
X86931500Y-124396500D03*
X86931500Y-121856500D03*
X84391500Y-132016500D03*
X84391500Y-129476500D03*
X84391500Y-126936500D03*
X84391500Y-124396500D03*
X84391500Y-121856500D03*
G36*
G01*
X121527000Y-139661000D02*
X121527000Y-137961000D01*
G75*
G02*
X121578000Y-137910000I51000J0D01*
G01*
X123278000Y-137910000D01*
G75*
G02*
X123329000Y-137961000I0J-51000D01*
G01*
X123329000Y-139661000D01*
G75*
G02*
X123278000Y-139712000I-51000J0D01*
G01*
X121578000Y-139712000D01*
G75*
G02*
X121527000Y-139661000I0J51000D01*
G01*
G37*
D16*
X124968000Y-138811000D03*
X122428000Y-141351000D03*
X124968000Y-141351000D03*
X122428000Y-143891000D03*
X124968000Y-143891000D03*
G36*
G01*
X111114000Y-136989999D02*
X111114000Y-138190001D01*
G75*
G02*
X111063001Y-138241000I-50999J0D01*
G01*
X109662999Y-138241000D01*
G75*
G02*
X109612000Y-138190001I0J50999D01*
G01*
X109612000Y-136989999D01*
G75*
G02*
X109662999Y-136939000I50999J0D01*
G01*
X111063001Y-136939000D01*
G75*
G02*
X111114000Y-136989999I0J-50999D01*
G01*
G37*
G36*
G01*
X108914000Y-136989999D02*
X108914000Y-138190001D01*
G75*
G02*
X108863001Y-138241000I-50999J0D01*
G01*
X107462999Y-138241000D01*
G75*
G02*
X107412000Y-138190001I0J50999D01*
G01*
X107412000Y-136989999D01*
G75*
G02*
X107462999Y-136939000I50999J0D01*
G01*
X108863001Y-136939000D01*
G75*
G02*
X108914000Y-136989999I0J-50999D01*
G01*
G37*
G36*
G01*
X108914000Y-135289999D02*
X108914000Y-136490001D01*
G75*
G02*
X108863001Y-136541000I-50999J0D01*
G01*
X107462999Y-136541000D01*
G75*
G02*
X107412000Y-136490001I0J50999D01*
G01*
X107412000Y-135289999D01*
G75*
G02*
X107462999Y-135239000I50999J0D01*
G01*
X108863001Y-135239000D01*
G75*
G02*
X108914000Y-135289999I0J-50999D01*
G01*
G37*
G36*
G01*
X111114000Y-135289999D02*
X111114000Y-136490001D01*
G75*
G02*
X111063001Y-136541000I-50999J0D01*
G01*
X109662999Y-136541000D01*
G75*
G02*
X109612000Y-136490001I0J50999D01*
G01*
X109612000Y-135289999D01*
G75*
G02*
X109662999Y-135239000I50999J0D01*
G01*
X111063001Y-135239000D01*
G75*
G02*
X111114000Y-135289999I0J-50999D01*
G01*
G37*
X82931000Y-141351000D03*
G36*
G01*
X84621000Y-140450000D02*
X86321000Y-140450000D01*
G75*
G02*
X86372000Y-140501000I0J-51000D01*
G01*
X86372000Y-142201000D01*
G75*
G02*
X86321000Y-142252000I-51000J0D01*
G01*
X84621000Y-142252000D01*
G75*
G02*
X84570000Y-142201000I0J51000D01*
G01*
X84570000Y-140501000D01*
G75*
G02*
X84621000Y-140450000I51000J0D01*
G01*
G37*
G36*
G01*
X127088000Y-113677000D02*
X125388000Y-113677000D01*
G75*
G02*
X125337000Y-113626000I0J51000D01*
G01*
X125337000Y-111926000D01*
G75*
G02*
X125388000Y-111875000I51000J0D01*
G01*
X127088000Y-111875000D01*
G75*
G02*
X127139000Y-111926000I0J-51000D01*
G01*
X127139000Y-113626000D01*
G75*
G02*
X127088000Y-113677000I-51000J0D01*
G01*
G37*
X126238000Y-110236000D03*
X123698000Y-112776000D03*
X123698000Y-110236000D03*
X121158000Y-112776000D03*
X121158000Y-110236000D03*
X118618000Y-112776000D03*
X118618000Y-110236000D03*
X116078000Y-112776000D03*
X116078000Y-110236000D03*
X113538000Y-112776000D03*
X113538000Y-110236000D03*
X110998000Y-112776000D03*
X110998000Y-110236000D03*
X108458000Y-112776000D03*
X108458000Y-110236000D03*
X105918000Y-112776000D03*
X105918000Y-110236000D03*
X103378000Y-112776000D03*
X103378000Y-110236000D03*
X100838000Y-112776000D03*
X100838000Y-110236000D03*
X98298000Y-112776000D03*
X98298000Y-110236000D03*
X95758000Y-112776000D03*
X95758000Y-110236000D03*
G36*
G01*
X93588888Y-120706157D02*
X93987343Y-121104612D01*
G75*
G02*
X93987343Y-121450034I-172711J-172711D01*
G01*
X93641922Y-121795455D01*
G75*
G02*
X93296500Y-121795455I-172711J172711D01*
G01*
X92898045Y-121397000D01*
G75*
G02*
X92898045Y-121051578I172711J172711D01*
G01*
X93243466Y-120706157D01*
G75*
G02*
X93588888Y-120706157I172711J-172711D01*
G01*
G37*
G36*
G01*
X92475194Y-121819851D02*
X92873649Y-122218306D01*
G75*
G02*
X92873649Y-122563728I-172711J-172711D01*
G01*
X92528228Y-122909149D01*
G75*
G02*
X92182806Y-122909149I-172711J172711D01*
G01*
X91784351Y-122510694D01*
G75*
G02*
X91784351Y-122165272I172711J172711D01*
G01*
X92129772Y-121819851D01*
G75*
G02*
X92475194Y-121819851I172711J-172711D01*
G01*
G37*
G36*
G01*
X96871347Y-118185698D02*
X97269802Y-118584153D01*
G75*
G02*
X97269802Y-118929575I-172711J-172711D01*
G01*
X96924381Y-119274996D01*
G75*
G02*
X96578959Y-119274996I-172711J172711D01*
G01*
X96180504Y-118876541D01*
G75*
G02*
X96180504Y-118531119I172711J172711D01*
G01*
X96525925Y-118185698D01*
G75*
G02*
X96871347Y-118185698I172711J-172711D01*
G01*
G37*
G36*
G01*
X97985041Y-117072004D02*
X98383496Y-117470459D01*
G75*
G02*
X98383496Y-117815881I-172711J-172711D01*
G01*
X98038075Y-118161302D01*
G75*
G02*
X97692653Y-118161302I-172711J172711D01*
G01*
X97294198Y-117762847D01*
G75*
G02*
X97294198Y-117417425I172711J172711D01*
G01*
X97639619Y-117072004D01*
G75*
G02*
X97985041Y-117072004I172711J-172711D01*
G01*
G37*
G36*
G01*
X113514950Y-137953500D02*
X112951450Y-137953500D01*
G75*
G02*
X112707200Y-137709250I0J244250D01*
G01*
X112707200Y-137220750D01*
G75*
G02*
X112951450Y-136976500I244250J0D01*
G01*
X113514950Y-136976500D01*
G75*
G02*
X113759200Y-137220750I0J-244250D01*
G01*
X113759200Y-137709250D01*
G75*
G02*
X113514950Y-137953500I-244250J0D01*
G01*
G37*
G36*
G01*
X113514950Y-136378500D02*
X112951450Y-136378500D01*
G75*
G02*
X112707200Y-136134250I0J244250D01*
G01*
X112707200Y-135645750D01*
G75*
G02*
X112951450Y-135401500I244250J0D01*
G01*
X113514950Y-135401500D01*
G75*
G02*
X113759200Y-135645750I0J-244250D01*
G01*
X113759200Y-136134250D01*
G75*
G02*
X113514950Y-136378500I-244250J0D01*
G01*
G37*
G36*
G01*
X108434950Y-140213800D02*
X107871450Y-140213800D01*
G75*
G02*
X107627200Y-139969550I0J244250D01*
G01*
X107627200Y-139481050D01*
G75*
G02*
X107871450Y-139236800I244250J0D01*
G01*
X108434950Y-139236800D01*
G75*
G02*
X108679200Y-139481050I0J-244250D01*
G01*
X108679200Y-139969550D01*
G75*
G02*
X108434950Y-140213800I-244250J0D01*
G01*
G37*
G36*
G01*
X108434950Y-141788800D02*
X107871450Y-141788800D01*
G75*
G02*
X107627200Y-141544550I0J244250D01*
G01*
X107627200Y-141056050D01*
G75*
G02*
X107871450Y-140811800I244250J0D01*
G01*
X108434950Y-140811800D01*
G75*
G02*
X108679200Y-141056050I0J-244250D01*
G01*
X108679200Y-141544550D01*
G75*
G02*
X108434950Y-141788800I-244250J0D01*
G01*
G37*
G36*
G01*
X95857250Y-133623500D02*
X96420750Y-133623500D01*
G75*
G02*
X96665000Y-133867750I0J-244250D01*
G01*
X96665000Y-134356250D01*
G75*
G02*
X96420750Y-134600500I-244250J0D01*
G01*
X95857250Y-134600500D01*
G75*
G02*
X95613000Y-134356250I0J244250D01*
G01*
X95613000Y-133867750D01*
G75*
G02*
X95857250Y-133623500I244250J0D01*
G01*
G37*
G36*
G01*
X95857250Y-135198500D02*
X96420750Y-135198500D01*
G75*
G02*
X96665000Y-135442750I0J-244250D01*
G01*
X96665000Y-135931250D01*
G75*
G02*
X96420750Y-136175500I-244250J0D01*
G01*
X95857250Y-136175500D01*
G75*
G02*
X95613000Y-135931250I0J244250D01*
G01*
X95613000Y-135442750D01*
G75*
G02*
X95857250Y-135198500I244250J0D01*
G01*
G37*
G36*
G01*
X110398750Y-120606000D02*
X110962250Y-120606000D01*
G75*
G02*
X111206500Y-120850250I0J-244250D01*
G01*
X111206500Y-121338750D01*
G75*
G02*
X110962250Y-121583000I-244250J0D01*
G01*
X110398750Y-121583000D01*
G75*
G02*
X110154500Y-121338750I0J244250D01*
G01*
X110154500Y-120850250D01*
G75*
G02*
X110398750Y-120606000I244250J0D01*
G01*
G37*
G36*
G01*
X110398750Y-119031000D02*
X110962250Y-119031000D01*
G75*
G02*
X111206500Y-119275250I0J-244250D01*
G01*
X111206500Y-119763750D01*
G75*
G02*
X110962250Y-120008000I-244250J0D01*
G01*
X110398750Y-120008000D01*
G75*
G02*
X110154500Y-119763750I0J244250D01*
G01*
X110154500Y-119275250D01*
G75*
G02*
X110398750Y-119031000I244250J0D01*
G01*
G37*
G36*
G01*
X110962250Y-125075500D02*
X110398750Y-125075500D01*
G75*
G02*
X110154500Y-124831250I0J244250D01*
G01*
X110154500Y-124342750D01*
G75*
G02*
X110398750Y-124098500I244250J0D01*
G01*
X110962250Y-124098500D01*
G75*
G02*
X111206500Y-124342750I0J-244250D01*
G01*
X111206500Y-124831250D01*
G75*
G02*
X110962250Y-125075500I-244250J0D01*
G01*
G37*
G36*
G01*
X110962250Y-123500500D02*
X110398750Y-123500500D01*
G75*
G02*
X110154500Y-123256250I0J244250D01*
G01*
X110154500Y-122767750D01*
G75*
G02*
X110398750Y-122523500I244250J0D01*
G01*
X110962250Y-122523500D01*
G75*
G02*
X111206500Y-122767750I0J-244250D01*
G01*
X111206500Y-123256250D01*
G75*
G02*
X110962250Y-123500500I-244250J0D01*
G01*
G37*
G36*
G01*
X91451500Y-141343000D02*
X91451500Y-139963000D01*
G75*
G02*
X91502500Y-139912000I51000J0D01*
G01*
X91952500Y-139912000D01*
G75*
G02*
X92003500Y-139963000I0J-51000D01*
G01*
X92003500Y-141343000D01*
G75*
G02*
X91952500Y-141394000I-51000J0D01*
G01*
X91502500Y-141394000D01*
G75*
G02*
X91451500Y-141343000I0J51000D01*
G01*
G37*
G36*
G01*
X92101500Y-141343000D02*
X92101500Y-139963000D01*
G75*
G02*
X92152500Y-139912000I51000J0D01*
G01*
X92602500Y-139912000D01*
G75*
G02*
X92653500Y-139963000I0J-51000D01*
G01*
X92653500Y-141343000D01*
G75*
G02*
X92602500Y-141394000I-51000J0D01*
G01*
X92152500Y-141394000D01*
G75*
G02*
X92101500Y-141343000I0J51000D01*
G01*
G37*
G36*
G01*
X92751500Y-141343000D02*
X92751500Y-139963000D01*
G75*
G02*
X92802500Y-139912000I51000J0D01*
G01*
X93252500Y-139912000D01*
G75*
G02*
X93303500Y-139963000I0J-51000D01*
G01*
X93303500Y-141343000D01*
G75*
G02*
X93252500Y-141394000I-51000J0D01*
G01*
X92802500Y-141394000D01*
G75*
G02*
X92751500Y-141343000I0J51000D01*
G01*
G37*
G36*
G01*
X93401500Y-141343000D02*
X93401500Y-139963000D01*
G75*
G02*
X93452500Y-139912000I51000J0D01*
G01*
X93902500Y-139912000D01*
G75*
G02*
X93953500Y-139963000I0J-51000D01*
G01*
X93953500Y-141343000D01*
G75*
G02*
X93902500Y-141394000I-51000J0D01*
G01*
X93452500Y-141394000D01*
G75*
G02*
X93401500Y-141343000I0J51000D01*
G01*
G37*
G36*
G01*
X94051500Y-141343000D02*
X94051500Y-139963000D01*
G75*
G02*
X94102500Y-139912000I51000J0D01*
G01*
X94552500Y-139912000D01*
G75*
G02*
X94603500Y-139963000I0J-51000D01*
G01*
X94603500Y-141343000D01*
G75*
G02*
X94552500Y-141394000I-51000J0D01*
G01*
X94102500Y-141394000D01*
G75*
G02*
X94051500Y-141343000I0J51000D01*
G01*
G37*
G36*
G01*
X89776500Y-141513000D02*
X89776500Y-139963000D01*
G75*
G02*
X89827500Y-139912000I51000J0D01*
G01*
X91252500Y-139912000D01*
G75*
G02*
X91303500Y-139963000I0J-51000D01*
G01*
X91303500Y-141513000D01*
G75*
G02*
X91252500Y-141564000I-51000J0D01*
G01*
X89827500Y-141564000D01*
G75*
G02*
X89776500Y-141513000I0J51000D01*
G01*
G37*
G36*
G01*
X94751500Y-141513000D02*
X94751500Y-139963000D01*
G75*
G02*
X94802500Y-139912000I51000J0D01*
G01*
X96227500Y-139912000D01*
G75*
G02*
X96278500Y-139963000I0J-51000D01*
G01*
X96278500Y-141513000D01*
G75*
G02*
X96227500Y-141564000I-51000J0D01*
G01*
X94802500Y-141564000D01*
G75*
G02*
X94751500Y-141513000I0J51000D01*
G01*
G37*
G36*
G01*
X88776500Y-143963000D02*
X88776500Y-142663000D01*
G75*
G02*
X88827500Y-142612000I51000J0D01*
G01*
X90477500Y-142612000D01*
G75*
G02*
X90528500Y-142663000I0J-51000D01*
G01*
X90528500Y-143963000D01*
G75*
G02*
X90477500Y-144014000I-51000J0D01*
G01*
X88827500Y-144014000D01*
G75*
G02*
X88776500Y-143963000I0J51000D01*
G01*
G37*
G36*
G01*
X95526500Y-143963000D02*
X95526500Y-142663000D01*
G75*
G02*
X95577500Y-142612000I51000J0D01*
G01*
X97227500Y-142612000D01*
G75*
G02*
X97278500Y-142663000I0J-51000D01*
G01*
X97278500Y-143963000D01*
G75*
G02*
X97227500Y-144014000I-51000J0D01*
G01*
X95577500Y-144014000D01*
G75*
G02*
X95526500Y-143963000I0J51000D01*
G01*
G37*
G36*
G01*
X90926500Y-144263000D02*
X90926500Y-142363000D01*
G75*
G02*
X90977500Y-142312000I51000J0D01*
G01*
X92777500Y-142312000D01*
G75*
G02*
X92828500Y-142363000I0J-51000D01*
G01*
X92828500Y-144263000D01*
G75*
G02*
X92777500Y-144314000I-51000J0D01*
G01*
X90977500Y-144314000D01*
G75*
G02*
X90926500Y-144263000I0J51000D01*
G01*
G37*
G36*
G01*
X94026500Y-144263000D02*
X94026500Y-142363000D01*
G75*
G02*
X94077500Y-142312000I51000J0D01*
G01*
X95077500Y-142312000D01*
G75*
G02*
X95128500Y-142363000I0J-51000D01*
G01*
X95128500Y-144263000D01*
G75*
G02*
X95077500Y-144314000I-51000J0D01*
G01*
X94077500Y-144314000D01*
G75*
G02*
X94026500Y-144263000I0J51000D01*
G01*
G37*
G36*
G01*
X103350250Y-134969500D02*
X103913750Y-134969500D01*
G75*
G02*
X104158000Y-135213750I0J-244250D01*
G01*
X104158000Y-135702250D01*
G75*
G02*
X103913750Y-135946500I-244250J0D01*
G01*
X103350250Y-135946500D01*
G75*
G02*
X103106000Y-135702250I0J244250D01*
G01*
X103106000Y-135213750D01*
G75*
G02*
X103350250Y-134969500I244250J0D01*
G01*
G37*
G36*
G01*
X103350250Y-136544500D02*
X103913750Y-136544500D01*
G75*
G02*
X104158000Y-136788750I0J-244250D01*
G01*
X104158000Y-137277250D01*
G75*
G02*
X103913750Y-137521500I-244250J0D01*
G01*
X103350250Y-137521500D01*
G75*
G02*
X103106000Y-137277250I0J244250D01*
G01*
X103106000Y-136788750D01*
G75*
G02*
X103350250Y-136544500I244250J0D01*
G01*
G37*
G36*
G01*
X113010500Y-132115750D02*
X113010500Y-132679250D01*
G75*
G02*
X112766250Y-132923500I-244250J0D01*
G01*
X112277750Y-132923500D01*
G75*
G02*
X112033500Y-132679250I0J244250D01*
G01*
X112033500Y-132115750D01*
G75*
G02*
X112277750Y-131871500I244250J0D01*
G01*
X112766250Y-131871500D01*
G75*
G02*
X113010500Y-132115750I0J-244250D01*
G01*
G37*
G36*
G01*
X114585500Y-132115750D02*
X114585500Y-132679250D01*
G75*
G02*
X114341250Y-132923500I-244250J0D01*
G01*
X113852750Y-132923500D01*
G75*
G02*
X113608500Y-132679250I0J244250D01*
G01*
X113608500Y-132115750D01*
G75*
G02*
X113852750Y-131871500I244250J0D01*
G01*
X114341250Y-131871500D01*
G75*
G02*
X114585500Y-132115750I0J-244250D01*
G01*
G37*
G36*
G01*
X114585500Y-130401250D02*
X114585500Y-130964750D01*
G75*
G02*
X114341250Y-131209000I-244250J0D01*
G01*
X113852750Y-131209000D01*
G75*
G02*
X113608500Y-130964750I0J244250D01*
G01*
X113608500Y-130401250D01*
G75*
G02*
X113852750Y-130157000I244250J0D01*
G01*
X114341250Y-130157000D01*
G75*
G02*
X114585500Y-130401250I0J-244250D01*
G01*
G37*
G36*
G01*
X113010500Y-130401250D02*
X113010500Y-130964750D01*
G75*
G02*
X112766250Y-131209000I-244250J0D01*
G01*
X112277750Y-131209000D01*
G75*
G02*
X112033500Y-130964750I0J244250D01*
G01*
X112033500Y-130401250D01*
G75*
G02*
X112277750Y-130157000I244250J0D01*
G01*
X112766250Y-130157000D01*
G75*
G02*
X113010500Y-130401250I0J-244250D01*
G01*
G37*
G36*
G01*
X105353500Y-119090250D02*
X105353500Y-118526750D01*
G75*
G02*
X105597750Y-118282500I244250J0D01*
G01*
X106086250Y-118282500D01*
G75*
G02*
X106330500Y-118526750I0J-244250D01*
G01*
X106330500Y-119090250D01*
G75*
G02*
X106086250Y-119334500I-244250J0D01*
G01*
X105597750Y-119334500D01*
G75*
G02*
X105353500Y-119090250I0J244250D01*
G01*
G37*
G36*
G01*
X103778500Y-119090250D02*
X103778500Y-118526750D01*
G75*
G02*
X104022750Y-118282500I244250J0D01*
G01*
X104511250Y-118282500D01*
G75*
G02*
X104755500Y-118526750I0J-244250D01*
G01*
X104755500Y-119090250D01*
G75*
G02*
X104511250Y-119334500I-244250J0D01*
G01*
X104022750Y-119334500D01*
G75*
G02*
X103778500Y-119090250I0J244250D01*
G01*
G37*
G36*
G01*
X91348750Y-137433500D02*
X91912250Y-137433500D01*
G75*
G02*
X92156500Y-137677750I0J-244250D01*
G01*
X92156500Y-138166250D01*
G75*
G02*
X91912250Y-138410500I-244250J0D01*
G01*
X91348750Y-138410500D01*
G75*
G02*
X91104500Y-138166250I0J244250D01*
G01*
X91104500Y-137677750D01*
G75*
G02*
X91348750Y-137433500I244250J0D01*
G01*
G37*
G36*
G01*
X91348750Y-135858500D02*
X91912250Y-135858500D01*
G75*
G02*
X92156500Y-136102750I0J-244250D01*
G01*
X92156500Y-136591250D01*
G75*
G02*
X91912250Y-136835500I-244250J0D01*
G01*
X91348750Y-136835500D01*
G75*
G02*
X91104500Y-136591250I0J244250D01*
G01*
X91104500Y-136102750D01*
G75*
G02*
X91348750Y-135858500I244250J0D01*
G01*
G37*
G36*
G01*
X93571250Y-135795000D02*
X94134750Y-135795000D01*
G75*
G02*
X94379000Y-136039250I0J-244250D01*
G01*
X94379000Y-136527750D01*
G75*
G02*
X94134750Y-136772000I-244250J0D01*
G01*
X93571250Y-136772000D01*
G75*
G02*
X93327000Y-136527750I0J244250D01*
G01*
X93327000Y-136039250D01*
G75*
G02*
X93571250Y-135795000I244250J0D01*
G01*
G37*
G36*
G01*
X93571250Y-137370000D02*
X94134750Y-137370000D01*
G75*
G02*
X94379000Y-137614250I0J-244250D01*
G01*
X94379000Y-138102750D01*
G75*
G02*
X94134750Y-138347000I-244250J0D01*
G01*
X93571250Y-138347000D01*
G75*
G02*
X93327000Y-138102750I0J244250D01*
G01*
X93327000Y-137614250D01*
G75*
G02*
X93571250Y-137370000I244250J0D01*
G01*
G37*
G36*
G01*
X112079500Y-120057000D02*
X112079500Y-118957000D01*
G75*
G02*
X112130500Y-118906000I51000J0D01*
G01*
X116730500Y-118906000D01*
G75*
G02*
X116781500Y-118957000I0J-51000D01*
G01*
X116781500Y-120057000D01*
G75*
G02*
X116730500Y-120108000I-51000J0D01*
G01*
X112130500Y-120108000D01*
G75*
G02*
X112079500Y-120057000I0J51000D01*
G01*
G37*
G36*
G01*
X112079500Y-125137000D02*
X112079500Y-124037000D01*
G75*
G02*
X112130500Y-123986000I51000J0D01*
G01*
X116730500Y-123986000D01*
G75*
G02*
X116781500Y-124037000I0J-51000D01*
G01*
X116781500Y-125137000D01*
G75*
G02*
X116730500Y-125188000I-51000J0D01*
G01*
X112130500Y-125188000D01*
G75*
G02*
X112079500Y-125137000I0J51000D01*
G01*
G37*
G36*
G01*
X118829500Y-127447000D02*
X118829500Y-116647000D01*
G75*
G02*
X118880500Y-116596000I51000J0D01*
G01*
X128280500Y-116596000D01*
G75*
G02*
X128331500Y-116647000I0J-51000D01*
G01*
X128331500Y-127447000D01*
G75*
G02*
X128280500Y-127498000I-51000J0D01*
G01*
X118880500Y-127498000D01*
G75*
G02*
X118829500Y-127447000I0J51000D01*
G01*
G37*
G36*
G01*
X94168410Y-126042856D02*
X93779502Y-126431764D01*
G75*
G02*
X93707378Y-126431764I-36062J36062D01*
G01*
X92646718Y-125371104D01*
G75*
G02*
X92646718Y-125298980I36062J36062D01*
G01*
X93035626Y-124910072D01*
G75*
G02*
X93107750Y-124910072I36062J-36062D01*
G01*
X94168410Y-125970732D01*
G75*
G02*
X94168410Y-126042856I-36062J-36062D01*
G01*
G37*
G36*
G01*
X94734096Y-125477171D02*
X94345188Y-125866079D01*
G75*
G02*
X94273064Y-125866079I-36062J36062D01*
G01*
X93212404Y-124805419D01*
G75*
G02*
X93212404Y-124733295I36062J36062D01*
G01*
X93601312Y-124344387D01*
G75*
G02*
X93673436Y-124344387I36062J-36062D01*
G01*
X94734096Y-125405047D01*
G75*
G02*
X94734096Y-125477171I-36062J-36062D01*
G01*
G37*
G36*
G01*
X95299781Y-124911486D02*
X94910873Y-125300394D01*
G75*
G02*
X94838749Y-125300394I-36062J36062D01*
G01*
X93778089Y-124239734D01*
G75*
G02*
X93778089Y-124167610I36062J36062D01*
G01*
X94166997Y-123778702D01*
G75*
G02*
X94239121Y-123778702I36062J-36062D01*
G01*
X95299781Y-124839362D01*
G75*
G02*
X95299781Y-124911486I-36062J-36062D01*
G01*
G37*
G36*
G01*
X95865466Y-124345800D02*
X95476558Y-124734708D01*
G75*
G02*
X95404434Y-124734708I-36062J36062D01*
G01*
X94343774Y-123674048D01*
G75*
G02*
X94343774Y-123601924I36062J36062D01*
G01*
X94732682Y-123213016D01*
G75*
G02*
X94804806Y-123213016I36062J-36062D01*
G01*
X95865466Y-124273676D01*
G75*
G02*
X95865466Y-124345800I-36062J-36062D01*
G01*
G37*
G36*
G01*
X96431152Y-123780115D02*
X96042244Y-124169023D01*
G75*
G02*
X95970120Y-124169023I-36062J36062D01*
G01*
X94909460Y-123108363D01*
G75*
G02*
X94909460Y-123036239I36062J36062D01*
G01*
X95298368Y-122647331D01*
G75*
G02*
X95370492Y-122647331I36062J-36062D01*
G01*
X96431152Y-123707991D01*
G75*
G02*
X96431152Y-123780115I-36062J-36062D01*
G01*
G37*
G36*
G01*
X96996837Y-123214429D02*
X96607929Y-123603337D01*
G75*
G02*
X96535805Y-123603337I-36062J36062D01*
G01*
X95475145Y-122542677D01*
G75*
G02*
X95475145Y-122470553I36062J36062D01*
G01*
X95864053Y-122081645D01*
G75*
G02*
X95936177Y-122081645I36062J-36062D01*
G01*
X96996837Y-123142305D01*
G75*
G02*
X96996837Y-123214429I-36062J-36062D01*
G01*
G37*
G36*
G01*
X97562523Y-122648744D02*
X97173615Y-123037652D01*
G75*
G02*
X97101491Y-123037652I-36062J36062D01*
G01*
X96040831Y-121976992D01*
G75*
G02*
X96040831Y-121904868I36062J36062D01*
G01*
X96429739Y-121515960D01*
G75*
G02*
X96501863Y-121515960I36062J-36062D01*
G01*
X97562523Y-122576620D01*
G75*
G02*
X97562523Y-122648744I-36062J-36062D01*
G01*
G37*
G36*
G01*
X98128208Y-122083058D02*
X97739300Y-122471966D01*
G75*
G02*
X97667176Y-122471966I-36062J36062D01*
G01*
X96606516Y-121411306D01*
G75*
G02*
X96606516Y-121339182I36062J36062D01*
G01*
X96995424Y-120950274D01*
G75*
G02*
X97067548Y-120950274I36062J-36062D01*
G01*
X98128208Y-122010934D01*
G75*
G02*
X98128208Y-122083058I-36062J-36062D01*
G01*
G37*
G36*
G01*
X98693894Y-121517373D02*
X98304986Y-121906281D01*
G75*
G02*
X98232862Y-121906281I-36062J36062D01*
G01*
X97172202Y-120845621D01*
G75*
G02*
X97172202Y-120773497I36062J36062D01*
G01*
X97561110Y-120384589D01*
G75*
G02*
X97633234Y-120384589I36062J-36062D01*
G01*
X98693894Y-121445249D01*
G75*
G02*
X98693894Y-121517373I-36062J-36062D01*
G01*
G37*
G36*
G01*
X99259579Y-120951688D02*
X98870671Y-121340596D01*
G75*
G02*
X98798547Y-121340596I-36062J36062D01*
G01*
X97737887Y-120279936D01*
G75*
G02*
X97737887Y-120207812I36062J36062D01*
G01*
X98126795Y-119818904D01*
G75*
G02*
X98198919Y-119818904I36062J-36062D01*
G01*
X99259579Y-120879564D01*
G75*
G02*
X99259579Y-120951688I-36062J-36062D01*
G01*
G37*
G36*
G01*
X99825264Y-120386002D02*
X99436356Y-120774910D01*
G75*
G02*
X99364232Y-120774910I-36062J36062D01*
G01*
X98303572Y-119714250D01*
G75*
G02*
X98303572Y-119642126I36062J36062D01*
G01*
X98692480Y-119253218D01*
G75*
G02*
X98764604Y-119253218I36062J-36062D01*
G01*
X99825264Y-120313878D01*
G75*
G02*
X99825264Y-120386002I-36062J-36062D01*
G01*
G37*
G36*
G01*
X101096644Y-120774910D02*
X100707736Y-120386002D01*
G75*
G02*
X100707736Y-120313878I36062J36062D01*
G01*
X101768396Y-119253218D01*
G75*
G02*
X101840520Y-119253218I36062J-36062D01*
G01*
X102229428Y-119642126D01*
G75*
G02*
X102229428Y-119714250I-36062J-36062D01*
G01*
X101168768Y-120774910D01*
G75*
G02*
X101096644Y-120774910I-36062J36062D01*
G01*
G37*
G36*
G01*
X101662329Y-121340596D02*
X101273421Y-120951688D01*
G75*
G02*
X101273421Y-120879564I36062J36062D01*
G01*
X102334081Y-119818904D01*
G75*
G02*
X102406205Y-119818904I36062J-36062D01*
G01*
X102795113Y-120207812D01*
G75*
G02*
X102795113Y-120279936I-36062J-36062D01*
G01*
X101734453Y-121340596D01*
G75*
G02*
X101662329Y-121340596I-36062J36062D01*
G01*
G37*
G36*
G01*
X102228014Y-121906281D02*
X101839106Y-121517373D01*
G75*
G02*
X101839106Y-121445249I36062J36062D01*
G01*
X102899766Y-120384589D01*
G75*
G02*
X102971890Y-120384589I36062J-36062D01*
G01*
X103360798Y-120773497D01*
G75*
G02*
X103360798Y-120845621I-36062J-36062D01*
G01*
X102300138Y-121906281D01*
G75*
G02*
X102228014Y-121906281I-36062J36062D01*
G01*
G37*
G36*
G01*
X102793700Y-122471966D02*
X102404792Y-122083058D01*
G75*
G02*
X102404792Y-122010934I36062J36062D01*
G01*
X103465452Y-120950274D01*
G75*
G02*
X103537576Y-120950274I36062J-36062D01*
G01*
X103926484Y-121339182D01*
G75*
G02*
X103926484Y-121411306I-36062J-36062D01*
G01*
X102865824Y-122471966D01*
G75*
G02*
X102793700Y-122471966I-36062J36062D01*
G01*
G37*
G36*
G01*
X103359385Y-123037652D02*
X102970477Y-122648744D01*
G75*
G02*
X102970477Y-122576620I36062J36062D01*
G01*
X104031137Y-121515960D01*
G75*
G02*
X104103261Y-121515960I36062J-36062D01*
G01*
X104492169Y-121904868D01*
G75*
G02*
X104492169Y-121976992I-36062J-36062D01*
G01*
X103431509Y-123037652D01*
G75*
G02*
X103359385Y-123037652I-36062J36062D01*
G01*
G37*
G36*
G01*
X103925071Y-123603337D02*
X103536163Y-123214429D01*
G75*
G02*
X103536163Y-123142305I36062J36062D01*
G01*
X104596823Y-122081645D01*
G75*
G02*
X104668947Y-122081645I36062J-36062D01*
G01*
X105057855Y-122470553D01*
G75*
G02*
X105057855Y-122542677I-36062J-36062D01*
G01*
X103997195Y-123603337D01*
G75*
G02*
X103925071Y-123603337I-36062J36062D01*
G01*
G37*
G36*
G01*
X104490756Y-124169023D02*
X104101848Y-123780115D01*
G75*
G02*
X104101848Y-123707991I36062J36062D01*
G01*
X105162508Y-122647331D01*
G75*
G02*
X105234632Y-122647331I36062J-36062D01*
G01*
X105623540Y-123036239D01*
G75*
G02*
X105623540Y-123108363I-36062J-36062D01*
G01*
X104562880Y-124169023D01*
G75*
G02*
X104490756Y-124169023I-36062J36062D01*
G01*
G37*
G36*
G01*
X105056442Y-124734708D02*
X104667534Y-124345800D01*
G75*
G02*
X104667534Y-124273676I36062J36062D01*
G01*
X105728194Y-123213016D01*
G75*
G02*
X105800318Y-123213016I36062J-36062D01*
G01*
X106189226Y-123601924D01*
G75*
G02*
X106189226Y-123674048I-36062J-36062D01*
G01*
X105128566Y-124734708D01*
G75*
G02*
X105056442Y-124734708I-36062J36062D01*
G01*
G37*
G36*
G01*
X105622127Y-125300394D02*
X105233219Y-124911486D01*
G75*
G02*
X105233219Y-124839362I36062J36062D01*
G01*
X106293879Y-123778702D01*
G75*
G02*
X106366003Y-123778702I36062J-36062D01*
G01*
X106754911Y-124167610D01*
G75*
G02*
X106754911Y-124239734I-36062J-36062D01*
G01*
X105694251Y-125300394D01*
G75*
G02*
X105622127Y-125300394I-36062J36062D01*
G01*
G37*
G36*
G01*
X106187812Y-125866079D02*
X105798904Y-125477171D01*
G75*
G02*
X105798904Y-125405047I36062J36062D01*
G01*
X106859564Y-124344387D01*
G75*
G02*
X106931688Y-124344387I36062J-36062D01*
G01*
X107320596Y-124733295D01*
G75*
G02*
X107320596Y-124805419I-36062J-36062D01*
G01*
X106259936Y-125866079D01*
G75*
G02*
X106187812Y-125866079I-36062J36062D01*
G01*
G37*
G36*
G01*
X106753498Y-126431764D02*
X106364590Y-126042856D01*
G75*
G02*
X106364590Y-125970732I36062J36062D01*
G01*
X107425250Y-124910072D01*
G75*
G02*
X107497374Y-124910072I36062J-36062D01*
G01*
X107886282Y-125298980D01*
G75*
G02*
X107886282Y-125371104I-36062J-36062D01*
G01*
X106825622Y-126431764D01*
G75*
G02*
X106753498Y-126431764I-36062J36062D01*
G01*
G37*
G36*
G01*
X107886282Y-128447020D02*
X107497374Y-128835928D01*
G75*
G02*
X107425250Y-128835928I-36062J36062D01*
G01*
X106364590Y-127775268D01*
G75*
G02*
X106364590Y-127703144I36062J36062D01*
G01*
X106753498Y-127314236D01*
G75*
G02*
X106825622Y-127314236I36062J-36062D01*
G01*
X107886282Y-128374896D01*
G75*
G02*
X107886282Y-128447020I-36062J-36062D01*
G01*
G37*
G36*
G01*
X107320596Y-129012705D02*
X106931688Y-129401613D01*
G75*
G02*
X106859564Y-129401613I-36062J36062D01*
G01*
X105798904Y-128340953D01*
G75*
G02*
X105798904Y-128268829I36062J36062D01*
G01*
X106187812Y-127879921D01*
G75*
G02*
X106259936Y-127879921I36062J-36062D01*
G01*
X107320596Y-128940581D01*
G75*
G02*
X107320596Y-129012705I-36062J-36062D01*
G01*
G37*
G36*
G01*
X106754911Y-129578390D02*
X106366003Y-129967298D01*
G75*
G02*
X106293879Y-129967298I-36062J36062D01*
G01*
X105233219Y-128906638D01*
G75*
G02*
X105233219Y-128834514I36062J36062D01*
G01*
X105622127Y-128445606D01*
G75*
G02*
X105694251Y-128445606I36062J-36062D01*
G01*
X106754911Y-129506266D01*
G75*
G02*
X106754911Y-129578390I-36062J-36062D01*
G01*
G37*
G36*
G01*
X106189226Y-130144076D02*
X105800318Y-130532984D01*
G75*
G02*
X105728194Y-130532984I-36062J36062D01*
G01*
X104667534Y-129472324D01*
G75*
G02*
X104667534Y-129400200I36062J36062D01*
G01*
X105056442Y-129011292D01*
G75*
G02*
X105128566Y-129011292I36062J-36062D01*
G01*
X106189226Y-130071952D01*
G75*
G02*
X106189226Y-130144076I-36062J-36062D01*
G01*
G37*
G36*
G01*
X105623540Y-130709761D02*
X105234632Y-131098669D01*
G75*
G02*
X105162508Y-131098669I-36062J36062D01*
G01*
X104101848Y-130038009D01*
G75*
G02*
X104101848Y-129965885I36062J36062D01*
G01*
X104490756Y-129576977D01*
G75*
G02*
X104562880Y-129576977I36062J-36062D01*
G01*
X105623540Y-130637637D01*
G75*
G02*
X105623540Y-130709761I-36062J-36062D01*
G01*
G37*
G36*
G01*
X105057855Y-131275447D02*
X104668947Y-131664355D01*
G75*
G02*
X104596823Y-131664355I-36062J36062D01*
G01*
X103536163Y-130603695D01*
G75*
G02*
X103536163Y-130531571I36062J36062D01*
G01*
X103925071Y-130142663D01*
G75*
G02*
X103997195Y-130142663I36062J-36062D01*
G01*
X105057855Y-131203323D01*
G75*
G02*
X105057855Y-131275447I-36062J-36062D01*
G01*
G37*
G36*
G01*
X104492169Y-131841132D02*
X104103261Y-132230040D01*
G75*
G02*
X104031137Y-132230040I-36062J36062D01*
G01*
X102970477Y-131169380D01*
G75*
G02*
X102970477Y-131097256I36062J36062D01*
G01*
X103359385Y-130708348D01*
G75*
G02*
X103431509Y-130708348I36062J-36062D01*
G01*
X104492169Y-131769008D01*
G75*
G02*
X104492169Y-131841132I-36062J-36062D01*
G01*
G37*
G36*
G01*
X103926484Y-132406818D02*
X103537576Y-132795726D01*
G75*
G02*
X103465452Y-132795726I-36062J36062D01*
G01*
X102404792Y-131735066D01*
G75*
G02*
X102404792Y-131662942I36062J36062D01*
G01*
X102793700Y-131274034D01*
G75*
G02*
X102865824Y-131274034I36062J-36062D01*
G01*
X103926484Y-132334694D01*
G75*
G02*
X103926484Y-132406818I-36062J-36062D01*
G01*
G37*
G36*
G01*
X103360798Y-132972503D02*
X102971890Y-133361411D01*
G75*
G02*
X102899766Y-133361411I-36062J36062D01*
G01*
X101839106Y-132300751D01*
G75*
G02*
X101839106Y-132228627I36062J36062D01*
G01*
X102228014Y-131839719D01*
G75*
G02*
X102300138Y-131839719I36062J-36062D01*
G01*
X103360798Y-132900379D01*
G75*
G02*
X103360798Y-132972503I-36062J-36062D01*
G01*
G37*
G36*
G01*
X102795113Y-133538188D02*
X102406205Y-133927096D01*
G75*
G02*
X102334081Y-133927096I-36062J36062D01*
G01*
X101273421Y-132866436D01*
G75*
G02*
X101273421Y-132794312I36062J36062D01*
G01*
X101662329Y-132405404D01*
G75*
G02*
X101734453Y-132405404I36062J-36062D01*
G01*
X102795113Y-133466064D01*
G75*
G02*
X102795113Y-133538188I-36062J-36062D01*
G01*
G37*
G36*
G01*
X102229428Y-134103874D02*
X101840520Y-134492782D01*
G75*
G02*
X101768396Y-134492782I-36062J36062D01*
G01*
X100707736Y-133432122D01*
G75*
G02*
X100707736Y-133359998I36062J36062D01*
G01*
X101096644Y-132971090D01*
G75*
G02*
X101168768Y-132971090I36062J-36062D01*
G01*
X102229428Y-134031750D01*
G75*
G02*
X102229428Y-134103874I-36062J-36062D01*
G01*
G37*
G36*
G01*
X98692480Y-134492782D02*
X98303572Y-134103874D01*
G75*
G02*
X98303572Y-134031750I36062J36062D01*
G01*
X99364232Y-132971090D01*
G75*
G02*
X99436356Y-132971090I36062J-36062D01*
G01*
X99825264Y-133359998D01*
G75*
G02*
X99825264Y-133432122I-36062J-36062D01*
G01*
X98764604Y-134492782D01*
G75*
G02*
X98692480Y-134492782I-36062J36062D01*
G01*
G37*
G36*
G01*
X98126795Y-133927096D02*
X97737887Y-133538188D01*
G75*
G02*
X97737887Y-133466064I36062J36062D01*
G01*
X98798547Y-132405404D01*
G75*
G02*
X98870671Y-132405404I36062J-36062D01*
G01*
X99259579Y-132794312D01*
G75*
G02*
X99259579Y-132866436I-36062J-36062D01*
G01*
X98198919Y-133927096D01*
G75*
G02*
X98126795Y-133927096I-36062J36062D01*
G01*
G37*
G36*
G01*
X97561110Y-133361411D02*
X97172202Y-132972503D01*
G75*
G02*
X97172202Y-132900379I36062J36062D01*
G01*
X98232862Y-131839719D01*
G75*
G02*
X98304986Y-131839719I36062J-36062D01*
G01*
X98693894Y-132228627D01*
G75*
G02*
X98693894Y-132300751I-36062J-36062D01*
G01*
X97633234Y-133361411D01*
G75*
G02*
X97561110Y-133361411I-36062J36062D01*
G01*
G37*
G36*
G01*
X96995424Y-132795726D02*
X96606516Y-132406818D01*
G75*
G02*
X96606516Y-132334694I36062J36062D01*
G01*
X97667176Y-131274034D01*
G75*
G02*
X97739300Y-131274034I36062J-36062D01*
G01*
X98128208Y-131662942D01*
G75*
G02*
X98128208Y-131735066I-36062J-36062D01*
G01*
X97067548Y-132795726D01*
G75*
G02*
X96995424Y-132795726I-36062J36062D01*
G01*
G37*
G36*
G01*
X96429739Y-132230040D02*
X96040831Y-131841132D01*
G75*
G02*
X96040831Y-131769008I36062J36062D01*
G01*
X97101491Y-130708348D01*
G75*
G02*
X97173615Y-130708348I36062J-36062D01*
G01*
X97562523Y-131097256D01*
G75*
G02*
X97562523Y-131169380I-36062J-36062D01*
G01*
X96501863Y-132230040D01*
G75*
G02*
X96429739Y-132230040I-36062J36062D01*
G01*
G37*
G36*
G01*
X95864053Y-131664355D02*
X95475145Y-131275447D01*
G75*
G02*
X95475145Y-131203323I36062J36062D01*
G01*
X96535805Y-130142663D01*
G75*
G02*
X96607929Y-130142663I36062J-36062D01*
G01*
X96996837Y-130531571D01*
G75*
G02*
X96996837Y-130603695I-36062J-36062D01*
G01*
X95936177Y-131664355D01*
G75*
G02*
X95864053Y-131664355I-36062J36062D01*
G01*
G37*
G36*
G01*
X95298368Y-131098669D02*
X94909460Y-130709761D01*
G75*
G02*
X94909460Y-130637637I36062J36062D01*
G01*
X95970120Y-129576977D01*
G75*
G02*
X96042244Y-129576977I36062J-36062D01*
G01*
X96431152Y-129965885D01*
G75*
G02*
X96431152Y-130038009I-36062J-36062D01*
G01*
X95370492Y-131098669D01*
G75*
G02*
X95298368Y-131098669I-36062J36062D01*
G01*
G37*
G36*
G01*
X94732682Y-130532984D02*
X94343774Y-130144076D01*
G75*
G02*
X94343774Y-130071952I36062J36062D01*
G01*
X95404434Y-129011292D01*
G75*
G02*
X95476558Y-129011292I36062J-36062D01*
G01*
X95865466Y-129400200D01*
G75*
G02*
X95865466Y-129472324I-36062J-36062D01*
G01*
X94804806Y-130532984D01*
G75*
G02*
X94732682Y-130532984I-36062J36062D01*
G01*
G37*
G36*
G01*
X94166997Y-129967298D02*
X93778089Y-129578390D01*
G75*
G02*
X93778089Y-129506266I36062J36062D01*
G01*
X94838749Y-128445606D01*
G75*
G02*
X94910873Y-128445606I36062J-36062D01*
G01*
X95299781Y-128834514D01*
G75*
G02*
X95299781Y-128906638I-36062J-36062D01*
G01*
X94239121Y-129967298D01*
G75*
G02*
X94166997Y-129967298I-36062J36062D01*
G01*
G37*
G36*
G01*
X93601312Y-129401613D02*
X93212404Y-129012705D01*
G75*
G02*
X93212404Y-128940581I36062J36062D01*
G01*
X94273064Y-127879921D01*
G75*
G02*
X94345188Y-127879921I36062J-36062D01*
G01*
X94734096Y-128268829D01*
G75*
G02*
X94734096Y-128340953I-36062J-36062D01*
G01*
X93673436Y-129401613D01*
G75*
G02*
X93601312Y-129401613I-36062J36062D01*
G01*
G37*
G36*
G01*
X93035626Y-128835928D02*
X92646718Y-128447020D01*
G75*
G02*
X92646718Y-128374896I36062J36062D01*
G01*
X93707378Y-127314236D01*
G75*
G02*
X93779502Y-127314236I36062J-36062D01*
G01*
X94168410Y-127703144D01*
G75*
G02*
X94168410Y-127775268I-36062J-36062D01*
G01*
X93107750Y-128835928D01*
G75*
G02*
X93035626Y-128835928I-36062J36062D01*
G01*
G37*
D18*
X78587600Y-112064800D03*
D19*
X80987600Y-112064800D03*
X80284656Y-113761856D03*
X78587600Y-114464800D03*
X76890544Y-113761856D03*
X76187600Y-112064800D03*
X76890544Y-110367744D03*
X78587600Y-109664800D03*
X80284656Y-110367744D03*
X125522056Y-130636944D03*
X123825000Y-129934000D03*
X122127944Y-130636944D03*
X121425000Y-132334000D03*
X122127944Y-134031056D03*
X123825000Y-134734000D03*
X125522056Y-134031056D03*
X126225000Y-132334000D03*
D18*
X123825000Y-132334000D03*
M02*
