G04 #@! TF.GenerationSoftware,KiCad,Pcbnew,(5.1.10-1-10_14)*
G04 #@! TF.CreationDate,2021-11-11T19:55:44+01:00*
G04 #@! TF.ProjectId,Demo Project 01,44656d6f-2050-4726-9f6a-656374203031,mk0*
G04 #@! TF.SameCoordinates,Original*
G04 #@! TF.FileFunction,Soldermask,Bot*
G04 #@! TF.FilePolarity,Negative*
%FSLAX46Y46*%
G04 Gerber Fmt 4.6, Leading zero omitted, Abs format (unit mm)*
G04 Created by KiCad (PCBNEW (5.1.10-1-10_14)) date 2021-11-11 19:55:44*
%MOMM*%
%LPD*%
G01*
G04 APERTURE LIST*
%ADD10O,1.802000X1.802000*%
%ADD11C,1.802000*%
%ADD12C,6.502000*%
%ADD13C,0.902000*%
%ADD14C,0.100000*%
G04 APERTURE END LIST*
D10*
X76327000Y-141351000D03*
G36*
G01*
X78017000Y-140450000D02*
X79717000Y-140450000D01*
G75*
G02*
X79768000Y-140501000I0J-51000D01*
G01*
X79768000Y-142201000D01*
G75*
G02*
X79717000Y-142252000I-51000J0D01*
G01*
X78017000Y-142252000D01*
G75*
G02*
X77966000Y-142201000I0J51000D01*
G01*
X77966000Y-140501000D01*
G75*
G02*
X78017000Y-140450000I51000J0D01*
G01*
G37*
G36*
G01*
X87832500Y-131380500D02*
X87832500Y-132652500D01*
G75*
G02*
X87567500Y-132917500I-265000J0D01*
G01*
X86295500Y-132917500D01*
G75*
G02*
X86030500Y-132652500I0J265000D01*
G01*
X86030500Y-131380500D01*
G75*
G02*
X86295500Y-131115500I265000J0D01*
G01*
X87567500Y-131115500D01*
G75*
G02*
X87832500Y-131380500I0J-265000D01*
G01*
G37*
D11*
X86931500Y-129476500D03*
X86931500Y-126936500D03*
X86931500Y-124396500D03*
X86931500Y-121856500D03*
X84391500Y-132016500D03*
X84391500Y-129476500D03*
X84391500Y-126936500D03*
X84391500Y-124396500D03*
X84391500Y-121856500D03*
G36*
G01*
X121527000Y-139661000D02*
X121527000Y-137961000D01*
G75*
G02*
X121578000Y-137910000I51000J0D01*
G01*
X123278000Y-137910000D01*
G75*
G02*
X123329000Y-137961000I0J-51000D01*
G01*
X123329000Y-139661000D01*
G75*
G02*
X123278000Y-139712000I-51000J0D01*
G01*
X121578000Y-139712000D01*
G75*
G02*
X121527000Y-139661000I0J51000D01*
G01*
G37*
D10*
X124968000Y-138811000D03*
X122428000Y-141351000D03*
X124968000Y-141351000D03*
X122428000Y-143891000D03*
X124968000Y-143891000D03*
X82931000Y-141351000D03*
G36*
G01*
X84621000Y-140450000D02*
X86321000Y-140450000D01*
G75*
G02*
X86372000Y-140501000I0J-51000D01*
G01*
X86372000Y-142201000D01*
G75*
G02*
X86321000Y-142252000I-51000J0D01*
G01*
X84621000Y-142252000D01*
G75*
G02*
X84570000Y-142201000I0J51000D01*
G01*
X84570000Y-140501000D01*
G75*
G02*
X84621000Y-140450000I51000J0D01*
G01*
G37*
G36*
G01*
X127088000Y-113677000D02*
X125388000Y-113677000D01*
G75*
G02*
X125337000Y-113626000I0J51000D01*
G01*
X125337000Y-111926000D01*
G75*
G02*
X125388000Y-111875000I51000J0D01*
G01*
X127088000Y-111875000D01*
G75*
G02*
X127139000Y-111926000I0J-51000D01*
G01*
X127139000Y-113626000D01*
G75*
G02*
X127088000Y-113677000I-51000J0D01*
G01*
G37*
X126238000Y-110236000D03*
X123698000Y-112776000D03*
X123698000Y-110236000D03*
X121158000Y-112776000D03*
X121158000Y-110236000D03*
X118618000Y-112776000D03*
X118618000Y-110236000D03*
X116078000Y-112776000D03*
X116078000Y-110236000D03*
X113538000Y-112776000D03*
X113538000Y-110236000D03*
X110998000Y-112776000D03*
X110998000Y-110236000D03*
X108458000Y-112776000D03*
X108458000Y-110236000D03*
X105918000Y-112776000D03*
X105918000Y-110236000D03*
X103378000Y-112776000D03*
X103378000Y-110236000D03*
X100838000Y-112776000D03*
X100838000Y-110236000D03*
X98298000Y-112776000D03*
X98298000Y-110236000D03*
X95758000Y-112776000D03*
X95758000Y-110236000D03*
D12*
X78587600Y-112064800D03*
D13*
X80987600Y-112064800D03*
X80284656Y-113761856D03*
X78587600Y-114464800D03*
X76890544Y-113761856D03*
X76187600Y-112064800D03*
X76890544Y-110367744D03*
X78587600Y-109664800D03*
X80284656Y-110367744D03*
X125522056Y-130636944D03*
X123825000Y-129934000D03*
X122127944Y-130636944D03*
X121425000Y-132334000D03*
X122127944Y-134031056D03*
X123825000Y-134734000D03*
X125522056Y-134031056D03*
X126225000Y-132334000D03*
D12*
X123825000Y-132334000D03*
D14*
G36*
X86032490Y-132652304D02*
G01*
X86037562Y-132703804D01*
X86052529Y-132753142D01*
X86076832Y-132798610D01*
X86109538Y-132838462D01*
X86149390Y-132871168D01*
X86194858Y-132895471D01*
X86244196Y-132910438D01*
X86295696Y-132915510D01*
X86297322Y-132916675D01*
X86297126Y-132918665D01*
X86295500Y-132919500D01*
X86213403Y-132919500D01*
X86213207Y-132919490D01*
X86172704Y-132915501D01*
X86172319Y-132915425D01*
X86139267Y-132905399D01*
X86138905Y-132905249D01*
X86108454Y-132888972D01*
X86108128Y-132888754D01*
X86081432Y-132866845D01*
X86081155Y-132866568D01*
X86059246Y-132839872D01*
X86059028Y-132839546D01*
X86042751Y-132809095D01*
X86042601Y-132808733D01*
X86032575Y-132775681D01*
X86032499Y-132775296D01*
X86028510Y-132734793D01*
X86028500Y-132734597D01*
X86028500Y-132652500D01*
X86029500Y-132650768D01*
X86031500Y-132650768D01*
X86032490Y-132652304D01*
G37*
G36*
X87833665Y-132650874D02*
G01*
X87834500Y-132652500D01*
X87834500Y-132734597D01*
X87834490Y-132734793D01*
X87830501Y-132775296D01*
X87830425Y-132775681D01*
X87820399Y-132808733D01*
X87820249Y-132809095D01*
X87803972Y-132839546D01*
X87803754Y-132839872D01*
X87781845Y-132866568D01*
X87781568Y-132866845D01*
X87754872Y-132888754D01*
X87754546Y-132888972D01*
X87724095Y-132905249D01*
X87723733Y-132905399D01*
X87690681Y-132915425D01*
X87690296Y-132915501D01*
X87649793Y-132919490D01*
X87649597Y-132919500D01*
X87567500Y-132919500D01*
X87565768Y-132918500D01*
X87565768Y-132916500D01*
X87567304Y-132915510D01*
X87618804Y-132910438D01*
X87668142Y-132895471D01*
X87713610Y-132871168D01*
X87753462Y-132838462D01*
X87786168Y-132798610D01*
X87810471Y-132753142D01*
X87825438Y-132703804D01*
X87830510Y-132652304D01*
X87831675Y-132650678D01*
X87833665Y-132650874D01*
G37*
G36*
X86297232Y-131114500D02*
G01*
X86297232Y-131116500D01*
X86295696Y-131117490D01*
X86244196Y-131122562D01*
X86194858Y-131137529D01*
X86149390Y-131161832D01*
X86109538Y-131194538D01*
X86076832Y-131234390D01*
X86052529Y-131279858D01*
X86037562Y-131329196D01*
X86032490Y-131380696D01*
X86031325Y-131382322D01*
X86029335Y-131382126D01*
X86028500Y-131380500D01*
X86028500Y-131298403D01*
X86028510Y-131298207D01*
X86032499Y-131257704D01*
X86032575Y-131257319D01*
X86042601Y-131224267D01*
X86042751Y-131223905D01*
X86059028Y-131193454D01*
X86059246Y-131193128D01*
X86081155Y-131166432D01*
X86081432Y-131166155D01*
X86108128Y-131144246D01*
X86108454Y-131144028D01*
X86138905Y-131127751D01*
X86139267Y-131127601D01*
X86172319Y-131117575D01*
X86172704Y-131117499D01*
X86213207Y-131113510D01*
X86213403Y-131113500D01*
X86295500Y-131113500D01*
X86297232Y-131114500D01*
G37*
G36*
X87649793Y-131113510D02*
G01*
X87690296Y-131117499D01*
X87690681Y-131117575D01*
X87723733Y-131127601D01*
X87724095Y-131127751D01*
X87754546Y-131144028D01*
X87754872Y-131144246D01*
X87781568Y-131166155D01*
X87781845Y-131166432D01*
X87803754Y-131193128D01*
X87803972Y-131193454D01*
X87820249Y-131223905D01*
X87820399Y-131224267D01*
X87830425Y-131257319D01*
X87830501Y-131257704D01*
X87834490Y-131298207D01*
X87834500Y-131298403D01*
X87834500Y-131380500D01*
X87833500Y-131382232D01*
X87831500Y-131382232D01*
X87830510Y-131380696D01*
X87825438Y-131329196D01*
X87810471Y-131279858D01*
X87786168Y-131234390D01*
X87753462Y-131194538D01*
X87713610Y-131161832D01*
X87668142Y-131137529D01*
X87618804Y-131122562D01*
X87567304Y-131117490D01*
X87565678Y-131116325D01*
X87565874Y-131114335D01*
X87567500Y-131113500D01*
X87649597Y-131113500D01*
X87649793Y-131113510D01*
G37*
M02*
