%FSLAX45Y45*%
G04 Gerber Fmt 4.5, Leading zero omitted, Abs format (unit mm)*
G04 Created by KiCad (PCBNEW (5.1.10-1-10_14)) date 2021-11-11 19:57:23*
%MOMM*%
%LPD*%
G01*
G04 APERTURE LIST*
%TA.AperFunction,Profile*%
%ADD10C,0.050000*%
%TD*%
%ADD11C,0.200000*%
%ADD12C,0.300000*%
G04 APERTURE END LIST*
D10*
X7315200Y-14620240D02*
X12934950Y-14620240D01*
X7315200Y-10712450D02*
X12934950Y-10712450D01*
X7315200Y-14620240D02*
X7315200Y-10712450D01*
X12934950Y-10712450D02*
X12934950Y-14620240D01*
D11*
X7409500Y-14458000D02*
X7449500Y-14498000D01*
X7449500Y-14458000D02*
X7409500Y-14498000D01*
X7473000Y-10866440D02*
X7513000Y-10906440D01*
X7513000Y-10866440D02*
X7473000Y-10906440D01*
X7544120Y-12873040D02*
X7584120Y-12913040D01*
X7584120Y-12873040D02*
X7544120Y-12913040D01*
X7582220Y-12060240D02*
X7622220Y-12100240D01*
X7622220Y-12060240D02*
X7582220Y-12100240D01*
X7714300Y-13553760D02*
X7754300Y-13593760D01*
X7754300Y-13553760D02*
X7714300Y-13593760D01*
X7914960Y-13182920D02*
X7954960Y-13222920D01*
X7954960Y-13182920D02*
X7914960Y-13222920D01*
X8019100Y-13828080D02*
X8059100Y-13868080D01*
X8059100Y-13828080D02*
X8019100Y-13868080D01*
X8082600Y-12070400D02*
X8122600Y-12110400D01*
X8122600Y-12070400D02*
X8082600Y-12110400D01*
X8240080Y-12542840D02*
X8280080Y-12582840D01*
X8280080Y-12542840D02*
X8240080Y-12582840D01*
X8387400Y-11041700D02*
X8427400Y-11081700D01*
X8427400Y-11041700D02*
X8387400Y-11081700D01*
X8412800Y-13518200D02*
X8452800Y-13558200D01*
X8452800Y-13518200D02*
X8412800Y-13558200D01*
X8422960Y-13784900D02*
X8462960Y-13824900D01*
X8462960Y-13784900D02*
X8422960Y-13824900D01*
X8527100Y-10863900D02*
X8567100Y-10903900D01*
X8567100Y-10863900D02*
X8527100Y-10903900D01*
X8654100Y-14419900D02*
X8694100Y-14459900D01*
X8694100Y-14419900D02*
X8654100Y-14459900D01*
X8857300Y-12286300D02*
X8897300Y-12326300D01*
X8897300Y-12286300D02*
X8857300Y-12326300D01*
X8908100Y-12641900D02*
X8948100Y-12681900D01*
X8948100Y-12641900D02*
X8908100Y-12681900D01*
X8946200Y-13518200D02*
X8986200Y-13558200D01*
X8986200Y-13518200D02*
X8946200Y-13558200D01*
X8951280Y-13759500D02*
X8991280Y-13799500D01*
X8991280Y-13759500D02*
X8951280Y-13799500D01*
X9009700Y-13289600D02*
X9049700Y-13329600D01*
X9049700Y-13289600D02*
X9009700Y-13329600D01*
X9047800Y-11587800D02*
X9087800Y-11627800D01*
X9087800Y-11587800D02*
X9047800Y-11627800D01*
X9111300Y-12337100D02*
X9151300Y-12377100D01*
X9151300Y-12337100D02*
X9111300Y-12377100D01*
X9111300Y-13073700D02*
X9151300Y-13113700D01*
X9151300Y-13073700D02*
X9111300Y-13113700D01*
X9118920Y-12791760D02*
X9158920Y-12831760D01*
X9158920Y-12791760D02*
X9118920Y-12831760D01*
X9162100Y-11892600D02*
X9202100Y-11932600D01*
X9202100Y-11892600D02*
X9162100Y-11932600D01*
X9238300Y-10863900D02*
X9278300Y-10903900D01*
X9278300Y-10863900D02*
X9238300Y-10903900D01*
X9251000Y-11486200D02*
X9291000Y-11526200D01*
X9291000Y-11486200D02*
X9251000Y-11526200D01*
X9256080Y-13294680D02*
X9296080Y-13334680D01*
X9296080Y-13294680D02*
X9256080Y-13334680D01*
X9466900Y-11791000D02*
X9506900Y-11831000D01*
X9506900Y-11791000D02*
X9466900Y-11831000D01*
X9543100Y-13772200D02*
X9583100Y-13812200D01*
X9583100Y-13772200D02*
X9543100Y-13812200D01*
X9610019Y-11587800D02*
X9650019Y-11627800D01*
X9650019Y-11587800D02*
X9610019Y-11627800D01*
X9698040Y-12705400D02*
X9738040Y-12745400D01*
X9738040Y-12705400D02*
X9698040Y-12745400D01*
X9822500Y-12311700D02*
X9862500Y-12351700D01*
X9862500Y-12311700D02*
X9822500Y-12351700D01*
X9911400Y-13061000D02*
X9951400Y-13101000D01*
X9951400Y-13061000D02*
X9911400Y-13101000D01*
X9926640Y-14249720D02*
X9966640Y-14289720D01*
X9966640Y-14249720D02*
X9926640Y-14289720D01*
X9936800Y-14470700D02*
X9976800Y-14510700D01*
X9976800Y-14470700D02*
X9936800Y-14510700D01*
X10048560Y-11689400D02*
X10088560Y-11729400D01*
X10088560Y-11689400D02*
X10048560Y-11729400D01*
X10063800Y-12792900D02*
X10103800Y-12832900D01*
X10103800Y-12792900D02*
X10063800Y-12832900D01*
X10066340Y-13518200D02*
X10106340Y-13558200D01*
X10106340Y-13518200D02*
X10066340Y-13558200D01*
X10076500Y-12268700D02*
X10116500Y-12308700D01*
X10116500Y-12268700D02*
X10076500Y-12308700D01*
X10089200Y-12400600D02*
X10129200Y-12440600D01*
X10129200Y-12400600D02*
X10089200Y-12440600D01*
X10099360Y-12532680D02*
X10139360Y-12572680D01*
X10139360Y-12532680D02*
X10099360Y-12572680D01*
X10178100Y-12870500D02*
X10218100Y-12910500D01*
X10218100Y-12870500D02*
X10178100Y-12910500D01*
X10297480Y-11623360D02*
X10337480Y-11663360D01*
X10337480Y-11623360D02*
X10297480Y-11663360D01*
X10343200Y-13810300D02*
X10383200Y-13850300D01*
X10383200Y-13810300D02*
X10343200Y-13850300D01*
X10348280Y-12888280D02*
X10388280Y-12928280D01*
X10388280Y-12888280D02*
X10348280Y-12928280D01*
X10438450Y-12771440D02*
X10478450Y-12811440D01*
X10478450Y-12771440D02*
X10438450Y-12811440D01*
X10556560Y-13960160D02*
X10596560Y-14000160D01*
X10596560Y-13960160D02*
X10556560Y-14000160D01*
X10561640Y-12065320D02*
X10601640Y-12105320D01*
X10601640Y-12065320D02*
X10561640Y-12105320D01*
X10635300Y-13442000D02*
X10675300Y-13482000D01*
X10675300Y-13442000D02*
X10635300Y-13482000D01*
X10927400Y-12807000D02*
X10967400Y-12847000D01*
X10967400Y-12807000D02*
X10927400Y-12847000D01*
X10962960Y-13132120D02*
X11002960Y-13172120D01*
X11002960Y-13132120D02*
X10962960Y-13172120D01*
X11074720Y-14000800D02*
X11114720Y-14040800D01*
X11114720Y-14000800D02*
X11074720Y-14040800D01*
X11181400Y-12751120D02*
X11221400Y-12791120D01*
X11221400Y-12751120D02*
X11181400Y-12791120D01*
X11181400Y-13391200D02*
X11221400Y-13431200D01*
X11221400Y-13391200D02*
X11181400Y-13431200D01*
X11328720Y-14483400D02*
X11368720Y-14523400D01*
X11368720Y-14483400D02*
X11328720Y-14523400D01*
X11364280Y-12288840D02*
X11404280Y-12328840D01*
X11404280Y-12288840D02*
X11364280Y-12328840D01*
X11389680Y-11516680D02*
X11429680Y-11556680D01*
X11429680Y-11516680D02*
X11389680Y-11556680D01*
X11597960Y-12187240D02*
X11637960Y-12227240D01*
X11637960Y-12187240D02*
X11597960Y-12227240D01*
X11638600Y-12705400D02*
X11678600Y-12745400D01*
X11678600Y-12705400D02*
X11638600Y-12745400D01*
X11719880Y-11755440D02*
X11759880Y-11795440D01*
X11759880Y-11755440D02*
X11719880Y-11795440D01*
X11867200Y-14000800D02*
X11907200Y-14040800D01*
X11907200Y-14000800D02*
X11867200Y-14040800D01*
X11912920Y-13193080D02*
X11952920Y-13233080D01*
X11952920Y-13193080D02*
X11912920Y-13233080D01*
X11930700Y-13581700D02*
X11970700Y-13621700D01*
X11970700Y-13581700D02*
X11930700Y-13621700D01*
X12690160Y-12893360D02*
X12730160Y-12933360D01*
X12730160Y-12893360D02*
X12690160Y-12933360D01*
X12743500Y-14254800D02*
X12783500Y-14294800D01*
X12783500Y-14254800D02*
X12743500Y-14294800D01*
X12756200Y-13670600D02*
X12796200Y-13710600D01*
X12796200Y-13670600D02*
X12756200Y-13710600D01*
X7643760Y-11206480D02*
G75*
G03*
X7643760Y-11206480I-25000J0D01*
G01*
X7714054Y-11036774D02*
G75*
G03*
X7714054Y-11036774I-25000J0D01*
G01*
X7714054Y-11376186D02*
G75*
G03*
X7714054Y-11376186I-25000J0D01*
G01*
X7883760Y-10966480D02*
G75*
G03*
X7883760Y-10966480I-25000J0D01*
G01*
X7883760Y-11446480D02*
G75*
G03*
X7883760Y-11446480I-25000J0D01*
G01*
X8053466Y-11036774D02*
G75*
G03*
X8053466Y-11036774I-25000J0D01*
G01*
X8053466Y-11376186D02*
G75*
G03*
X8053466Y-11376186I-25000J0D01*
G01*
X8123760Y-11206480D02*
G75*
G03*
X8123760Y-11206480I-25000J0D01*
G01*
X12167500Y-13233400D02*
G75*
G03*
X12167500Y-13233400I-25000J0D01*
G01*
X12237794Y-13063694D02*
G75*
G03*
X12237794Y-13063694I-25000J0D01*
G01*
X12237794Y-13403106D02*
G75*
G03*
X12237794Y-13403106I-25000J0D01*
G01*
X12407500Y-12993400D02*
G75*
G03*
X12407500Y-12993400I-25000J0D01*
G01*
X12407500Y-13473400D02*
G75*
G03*
X12407500Y-13473400I-25000J0D01*
G01*
X12577206Y-13063694D02*
G75*
G03*
X12577206Y-13063694I-25000J0D01*
G01*
X12577206Y-13403106D02*
G75*
G03*
X12577206Y-13403106I-25000J0D01*
G01*
X12647500Y-13233400D02*
G75*
G03*
X12647500Y-13233400I-25000J0D01*
G01*
X7632700Y-14085100D02*
X7632700Y-14185100D01*
X7582700Y-14135100D02*
X7682700Y-14135100D01*
X7886700Y-14085100D02*
X7886700Y-14185100D01*
X7836700Y-14135100D02*
X7936700Y-14135100D01*
X8293100Y-14085100D02*
X8293100Y-14185100D01*
X8243100Y-14135100D02*
X8343100Y-14135100D01*
X8439150Y-12135650D02*
X8439150Y-12235650D01*
X8389150Y-12185650D02*
X8489150Y-12185650D01*
X8439150Y-12389650D02*
X8439150Y-12489650D01*
X8389150Y-12439650D02*
X8489150Y-12439650D01*
X8439150Y-12643650D02*
X8439150Y-12743650D01*
X8389150Y-12693650D02*
X8489150Y-12693650D01*
X8439150Y-12897650D02*
X8439150Y-12997650D01*
X8389150Y-12947650D02*
X8489150Y-12947650D01*
X8439150Y-13151650D02*
X8439150Y-13251650D01*
X8389150Y-13201650D02*
X8489150Y-13201650D01*
X8547100Y-14085100D02*
X8547100Y-14185100D01*
X8497100Y-14135100D02*
X8597100Y-14135100D01*
X8693150Y-12135650D02*
X8693150Y-12235650D01*
X8643150Y-12185650D02*
X8743150Y-12185650D01*
X8693150Y-12389650D02*
X8693150Y-12489650D01*
X8643150Y-12439650D02*
X8743150Y-12439650D01*
X8693150Y-12643650D02*
X8693150Y-12743650D01*
X8643150Y-12693650D02*
X8743150Y-12693650D01*
X8693150Y-12897650D02*
X8693150Y-12997650D01*
X8643150Y-12947650D02*
X8743150Y-12947650D01*
X8693150Y-13151650D02*
X8693150Y-13251650D01*
X8643150Y-13201650D02*
X8743150Y-13201650D01*
X9575800Y-10973600D02*
X9575800Y-11073600D01*
X9525800Y-11023600D02*
X9625800Y-11023600D01*
X9575800Y-11227600D02*
X9575800Y-11327600D01*
X9525800Y-11277600D02*
X9625800Y-11277600D01*
X9829800Y-10973600D02*
X9829800Y-11073600D01*
X9779800Y-11023600D02*
X9879800Y-11023600D01*
X9829800Y-11227600D02*
X9829800Y-11327600D01*
X9779800Y-11277600D02*
X9879800Y-11277600D01*
X10083800Y-10973600D02*
X10083800Y-11073600D01*
X10033800Y-11023600D02*
X10133800Y-11023600D01*
X10083800Y-11227600D02*
X10083800Y-11327600D01*
X10033800Y-11277600D02*
X10133800Y-11277600D01*
X10337800Y-10973600D02*
X10337800Y-11073600D01*
X10287800Y-11023600D02*
X10387800Y-11023600D01*
X10337800Y-11227600D02*
X10337800Y-11327600D01*
X10287800Y-11277600D02*
X10387800Y-11277600D01*
X10591800Y-10973600D02*
X10591800Y-11073600D01*
X10541800Y-11023600D02*
X10641800Y-11023600D01*
X10591800Y-11227600D02*
X10591800Y-11327600D01*
X10541800Y-11277600D02*
X10641800Y-11277600D01*
X10845800Y-10973600D02*
X10845800Y-11073600D01*
X10795800Y-11023600D02*
X10895800Y-11023600D01*
X10845800Y-11227600D02*
X10845800Y-11327600D01*
X10795800Y-11277600D02*
X10895800Y-11277600D01*
X11099800Y-10973600D02*
X11099800Y-11073600D01*
X11049800Y-11023600D02*
X11149800Y-11023600D01*
X11099800Y-11227600D02*
X11099800Y-11327600D01*
X11049800Y-11277600D02*
X11149800Y-11277600D01*
X11353800Y-10973600D02*
X11353800Y-11073600D01*
X11303800Y-11023600D02*
X11403800Y-11023600D01*
X11353800Y-11227600D02*
X11353800Y-11327600D01*
X11303800Y-11277600D02*
X11403800Y-11277600D01*
X11607800Y-10973600D02*
X11607800Y-11073600D01*
X11557800Y-11023600D02*
X11657800Y-11023600D01*
X11607800Y-11227600D02*
X11607800Y-11327600D01*
X11557800Y-11277600D02*
X11657800Y-11277600D01*
X11861800Y-10973600D02*
X11861800Y-11073600D01*
X11811800Y-11023600D02*
X11911800Y-11023600D01*
X11861800Y-11227600D02*
X11861800Y-11327600D01*
X11811800Y-11277600D02*
X11911800Y-11277600D01*
X12115800Y-10973600D02*
X12115800Y-11073600D01*
X12065800Y-11023600D02*
X12165800Y-11023600D01*
X12115800Y-11227600D02*
X12115800Y-11327600D01*
X12065800Y-11277600D02*
X12165800Y-11277600D01*
X12242800Y-13831100D02*
X12242800Y-13931100D01*
X12192800Y-13881100D02*
X12292800Y-13881100D01*
X12242800Y-14085100D02*
X12242800Y-14185100D01*
X12192800Y-14135100D02*
X12292800Y-14135100D01*
X12242800Y-14339100D02*
X12242800Y-14439100D01*
X12192800Y-14389100D02*
X12292800Y-14389100D01*
X12369800Y-10973600D02*
X12369800Y-11073600D01*
X12319800Y-11023600D02*
X12419800Y-11023600D01*
X12369800Y-11227600D02*
X12369800Y-11327600D01*
X12319800Y-11277600D02*
X12419800Y-11277600D01*
X12496800Y-13831100D02*
X12496800Y-13931100D01*
X12446800Y-13881100D02*
X12546800Y-13881100D01*
X12496800Y-14085100D02*
X12496800Y-14185100D01*
X12446800Y-14135100D02*
X12546800Y-14135100D01*
X12496800Y-14339100D02*
X12496800Y-14439100D01*
X12446800Y-14389100D02*
X12546800Y-14389100D01*
X12623800Y-10973600D02*
X12623800Y-11073600D01*
X12573800Y-11023600D02*
X12673800Y-11023600D01*
X12623800Y-11227600D02*
X12623800Y-11327600D01*
X12573800Y-11277600D02*
X12673800Y-11277600D01*
X7971898Y-11319618D02*
X7971898Y-11093342D01*
X7745622Y-11093342D01*
X7745622Y-11319618D01*
X7971898Y-11319618D01*
X12495638Y-13346538D02*
X12495638Y-13120262D01*
X12269362Y-13120262D01*
X12269362Y-13346538D01*
X12495638Y-13346538D01*
D12*
X7599128Y-15088454D02*
X7599128Y-14788454D01*
X7670557Y-14788454D01*
X7713414Y-14802740D01*
X7741986Y-14831311D01*
X7756271Y-14859883D01*
X7770557Y-14917026D01*
X7770557Y-14959883D01*
X7756271Y-15017026D01*
X7741986Y-15045597D01*
X7713414Y-15074169D01*
X7670557Y-15088454D01*
X7599128Y-15088454D01*
X7899128Y-15088454D02*
X7899128Y-14888454D01*
X7899128Y-14945597D02*
X7913414Y-14917026D01*
X7927700Y-14902740D01*
X7956271Y-14888454D01*
X7984843Y-14888454D01*
X8084843Y-15088454D02*
X8084843Y-14888454D01*
X8084843Y-14788454D02*
X8070557Y-14802740D01*
X8084843Y-14817026D01*
X8099128Y-14802740D01*
X8084843Y-14788454D01*
X8084843Y-14817026D01*
X8270557Y-15088454D02*
X8241986Y-15074169D01*
X8227700Y-15045597D01*
X8227700Y-14788454D01*
X8427700Y-15088454D02*
X8399128Y-15074169D01*
X8384843Y-15045597D01*
X8384843Y-14788454D01*
X8770557Y-15088454D02*
X8770557Y-14788454D01*
X8870557Y-15002740D01*
X8970557Y-14788454D01*
X8970557Y-15088454D01*
X9241986Y-15088454D02*
X9241986Y-14931311D01*
X9227700Y-14902740D01*
X9199128Y-14888454D01*
X9141986Y-14888454D01*
X9113414Y-14902740D01*
X9241986Y-15074169D02*
X9213414Y-15088454D01*
X9141986Y-15088454D01*
X9113414Y-15074169D01*
X9099128Y-15045597D01*
X9099128Y-15017026D01*
X9113414Y-14988454D01*
X9141986Y-14974169D01*
X9213414Y-14974169D01*
X9241986Y-14959883D01*
X9384843Y-14888454D02*
X9384843Y-15188454D01*
X9384843Y-14902740D02*
X9413414Y-14888454D01*
X9470557Y-14888454D01*
X9499128Y-14902740D01*
X9513414Y-14917026D01*
X9527700Y-14945597D01*
X9527700Y-15031311D01*
X9513414Y-15059883D01*
X9499128Y-15074169D01*
X9470557Y-15088454D01*
X9413414Y-15088454D01*
X9384843Y-15074169D01*
X9656271Y-15059883D02*
X9670557Y-15074169D01*
X9656271Y-15088454D01*
X9641986Y-15074169D01*
X9656271Y-15059883D01*
X9656271Y-15088454D01*
X9656271Y-14902740D02*
X9670557Y-14917026D01*
X9656271Y-14931311D01*
X9641986Y-14917026D01*
X9656271Y-14902740D01*
X9656271Y-14931311D01*
X7272700Y-15562740D02*
X7312700Y-15602740D01*
X7312700Y-15562740D02*
X7272700Y-15602740D01*
X7656271Y-15418454D02*
X7684843Y-15418454D01*
X7713414Y-15432740D01*
X7727700Y-15447026D01*
X7741986Y-15475597D01*
X7756271Y-15532740D01*
X7756271Y-15604169D01*
X7741986Y-15661311D01*
X7727700Y-15689883D01*
X7713414Y-15704169D01*
X7684843Y-15718454D01*
X7656271Y-15718454D01*
X7627700Y-15704169D01*
X7613414Y-15689883D01*
X7599128Y-15661311D01*
X7584843Y-15604169D01*
X7584843Y-15532740D01*
X7599128Y-15475597D01*
X7613414Y-15447026D01*
X7627700Y-15432740D01*
X7656271Y-15418454D01*
X7884843Y-15689883D02*
X7899128Y-15704169D01*
X7884843Y-15718454D01*
X7870557Y-15704169D01*
X7884843Y-15689883D01*
X7884843Y-15718454D01*
X8156271Y-15518454D02*
X8156271Y-15718454D01*
X8084843Y-15404169D02*
X8013414Y-15618454D01*
X8199128Y-15618454D01*
X8370557Y-15418454D02*
X8399128Y-15418454D01*
X8427700Y-15432740D01*
X8441986Y-15447026D01*
X8456271Y-15475597D01*
X8470557Y-15532740D01*
X8470557Y-15604169D01*
X8456271Y-15661311D01*
X8441986Y-15689883D01*
X8427700Y-15704169D01*
X8399128Y-15718454D01*
X8370557Y-15718454D01*
X8341986Y-15704169D01*
X8327700Y-15689883D01*
X8313414Y-15661311D01*
X8299128Y-15604169D01*
X8299128Y-15532740D01*
X8313414Y-15475597D01*
X8327700Y-15447026D01*
X8341986Y-15432740D01*
X8370557Y-15418454D01*
X8656271Y-15418454D02*
X8684843Y-15418454D01*
X8713414Y-15432740D01*
X8727700Y-15447026D01*
X8741986Y-15475597D01*
X8756271Y-15532740D01*
X8756271Y-15604169D01*
X8741986Y-15661311D01*
X8727700Y-15689883D01*
X8713414Y-15704169D01*
X8684843Y-15718454D01*
X8656271Y-15718454D01*
X8627700Y-15704169D01*
X8613414Y-15689883D01*
X8599128Y-15661311D01*
X8584843Y-15604169D01*
X8584843Y-15532740D01*
X8599128Y-15475597D01*
X8613414Y-15447026D01*
X8627700Y-15432740D01*
X8656271Y-15418454D01*
X8884843Y-15718454D02*
X8884843Y-15518454D01*
X8884843Y-15547026D02*
X8899128Y-15532740D01*
X8927700Y-15518454D01*
X8970557Y-15518454D01*
X8999128Y-15532740D01*
X9013414Y-15561311D01*
X9013414Y-15718454D01*
X9013414Y-15561311D02*
X9027700Y-15532740D01*
X9056271Y-15518454D01*
X9099128Y-15518454D01*
X9127700Y-15532740D01*
X9141986Y-15561311D01*
X9141986Y-15718454D01*
X9284843Y-15718454D02*
X9284843Y-15518454D01*
X9284843Y-15547026D02*
X9299128Y-15532740D01*
X9327700Y-15518454D01*
X9370557Y-15518454D01*
X9399128Y-15532740D01*
X9413414Y-15561311D01*
X9413414Y-15718454D01*
X9413414Y-15561311D02*
X9427700Y-15532740D01*
X9456271Y-15518454D01*
X9499128Y-15518454D01*
X9527700Y-15532740D01*
X9541986Y-15561311D01*
X9541986Y-15718454D01*
X10127700Y-15404169D02*
X9870557Y-15789883D01*
X10513414Y-15418454D02*
X10541986Y-15418454D01*
X10570557Y-15432740D01*
X10584843Y-15447026D01*
X10599128Y-15475597D01*
X10613414Y-15532740D01*
X10613414Y-15604169D01*
X10599128Y-15661311D01*
X10584843Y-15689883D01*
X10570557Y-15704169D01*
X10541986Y-15718454D01*
X10513414Y-15718454D01*
X10484843Y-15704169D01*
X10470557Y-15689883D01*
X10456271Y-15661311D01*
X10441986Y-15604169D01*
X10441986Y-15532740D01*
X10456271Y-15475597D01*
X10470557Y-15447026D01*
X10484843Y-15432740D01*
X10513414Y-15418454D01*
X10741986Y-15689883D02*
X10756271Y-15704169D01*
X10741986Y-15718454D01*
X10727700Y-15704169D01*
X10741986Y-15689883D01*
X10741986Y-15718454D01*
X10941986Y-15418454D02*
X10970557Y-15418454D01*
X10999128Y-15432740D01*
X11013414Y-15447026D01*
X11027700Y-15475597D01*
X11041986Y-15532740D01*
X11041986Y-15604169D01*
X11027700Y-15661311D01*
X11013414Y-15689883D01*
X10999128Y-15704169D01*
X10970557Y-15718454D01*
X10941986Y-15718454D01*
X10913414Y-15704169D01*
X10899128Y-15689883D01*
X10884843Y-15661311D01*
X10870557Y-15604169D01*
X10870557Y-15532740D01*
X10884843Y-15475597D01*
X10899128Y-15447026D01*
X10913414Y-15432740D01*
X10941986Y-15418454D01*
X11327700Y-15718454D02*
X11156271Y-15718454D01*
X11241986Y-15718454D02*
X11241986Y-15418454D01*
X11213414Y-15461311D01*
X11184843Y-15489883D01*
X11156271Y-15504169D01*
X11599128Y-15418454D02*
X11456271Y-15418454D01*
X11441986Y-15561311D01*
X11456271Y-15547026D01*
X11484843Y-15532740D01*
X11556271Y-15532740D01*
X11584843Y-15547026D01*
X11599128Y-15561311D01*
X11613414Y-15589883D01*
X11613414Y-15661311D01*
X11599128Y-15689883D01*
X11584843Y-15704169D01*
X11556271Y-15718454D01*
X11484843Y-15718454D01*
X11456271Y-15704169D01*
X11441986Y-15689883D01*
X11713414Y-15418454D02*
X11913414Y-15418454D01*
X11784843Y-15718454D01*
X12013414Y-15418454D02*
X12013414Y-15475597D01*
X12127700Y-15418454D02*
X12127700Y-15475597D01*
X12570557Y-15832740D02*
X12556271Y-15818454D01*
X12527700Y-15775597D01*
X12513414Y-15747026D01*
X12499128Y-15704169D01*
X12484843Y-15632740D01*
X12484843Y-15575597D01*
X12499128Y-15504169D01*
X12513414Y-15461311D01*
X12527700Y-15432740D01*
X12556271Y-15389883D01*
X12570557Y-15375597D01*
X12813414Y-15418454D02*
X12756271Y-15418454D01*
X12727700Y-15432740D01*
X12713414Y-15447026D01*
X12684843Y-15489883D01*
X12670557Y-15547026D01*
X12670557Y-15661311D01*
X12684843Y-15689883D01*
X12699128Y-15704169D01*
X12727700Y-15718454D01*
X12784843Y-15718454D01*
X12813414Y-15704169D01*
X12827700Y-15689883D01*
X12841986Y-15661311D01*
X12841986Y-15589883D01*
X12827700Y-15561311D01*
X12813414Y-15547026D01*
X12784843Y-15532740D01*
X12727700Y-15532740D01*
X12699128Y-15547026D01*
X12684843Y-15561311D01*
X12670557Y-15589883D01*
X13099128Y-15418454D02*
X13041986Y-15418454D01*
X13013414Y-15432740D01*
X12999128Y-15447026D01*
X12970557Y-15489883D01*
X12956271Y-15547026D01*
X12956271Y-15661311D01*
X12970557Y-15689883D01*
X12984843Y-15704169D01*
X13013414Y-15718454D01*
X13070557Y-15718454D01*
X13099128Y-15704169D01*
X13113414Y-15689883D01*
X13127700Y-15661311D01*
X13127700Y-15589883D01*
X13113414Y-15561311D01*
X13099128Y-15547026D01*
X13070557Y-15532740D01*
X13013414Y-15532740D01*
X12984843Y-15547026D01*
X12970557Y-15561311D01*
X12956271Y-15589883D01*
X13484843Y-15718454D02*
X13484843Y-15418454D01*
X13613414Y-15718454D02*
X13613414Y-15561311D01*
X13599128Y-15532740D01*
X13570557Y-15518454D01*
X13527700Y-15518454D01*
X13499128Y-15532740D01*
X13484843Y-15547026D01*
X13799128Y-15718454D02*
X13770557Y-15704169D01*
X13756271Y-15689883D01*
X13741986Y-15661311D01*
X13741986Y-15575597D01*
X13756271Y-15547026D01*
X13770557Y-15532740D01*
X13799128Y-15518454D01*
X13841986Y-15518454D01*
X13870557Y-15532740D01*
X13884843Y-15547026D01*
X13899128Y-15575597D01*
X13899128Y-15661311D01*
X13884843Y-15689883D01*
X13870557Y-15704169D01*
X13841986Y-15718454D01*
X13799128Y-15718454D01*
X14070557Y-15718454D02*
X14041986Y-15704169D01*
X14027700Y-15675597D01*
X14027700Y-15418454D01*
X14299128Y-15704169D02*
X14270557Y-15718454D01*
X14213414Y-15718454D01*
X14184843Y-15704169D01*
X14170557Y-15675597D01*
X14170557Y-15561311D01*
X14184843Y-15532740D01*
X14213414Y-15518454D01*
X14270557Y-15518454D01*
X14299128Y-15532740D01*
X14313414Y-15561311D01*
X14313414Y-15589883D01*
X14170557Y-15618454D01*
X14427700Y-15704169D02*
X14456271Y-15718454D01*
X14513414Y-15718454D01*
X14541986Y-15704169D01*
X14556271Y-15675597D01*
X14556271Y-15661311D01*
X14541986Y-15632740D01*
X14513414Y-15618454D01*
X14470557Y-15618454D01*
X14441986Y-15604169D01*
X14427700Y-15575597D01*
X14427700Y-15561311D01*
X14441986Y-15532740D01*
X14470557Y-15518454D01*
X14513414Y-15518454D01*
X14541986Y-15532740D01*
X14656271Y-15832740D02*
X14670557Y-15818454D01*
X14699128Y-15775597D01*
X14713414Y-15747026D01*
X14727700Y-15704169D01*
X14741986Y-15632740D01*
X14741986Y-15575597D01*
X14727700Y-15504169D01*
X14713414Y-15461311D01*
X14699128Y-15432740D01*
X14670557Y-15389883D01*
X14656271Y-15375597D01*
X7312700Y-15978740D02*
G75*
G03*
X7312700Y-15978740I-25000J0D01*
G01*
X7656271Y-15814454D02*
X7684843Y-15814454D01*
X7713414Y-15828740D01*
X7727700Y-15843026D01*
X7741986Y-15871597D01*
X7756271Y-15928740D01*
X7756271Y-16000169D01*
X7741986Y-16057311D01*
X7727700Y-16085883D01*
X7713414Y-16100169D01*
X7684843Y-16114454D01*
X7656271Y-16114454D01*
X7627700Y-16100169D01*
X7613414Y-16085883D01*
X7599128Y-16057311D01*
X7584843Y-16000169D01*
X7584843Y-15928740D01*
X7599128Y-15871597D01*
X7613414Y-15843026D01*
X7627700Y-15828740D01*
X7656271Y-15814454D01*
X7884843Y-16085883D02*
X7899128Y-16100169D01*
X7884843Y-16114454D01*
X7870557Y-16100169D01*
X7884843Y-16085883D01*
X7884843Y-16114454D01*
X8170557Y-15814454D02*
X8027700Y-15814454D01*
X8013414Y-15957311D01*
X8027700Y-15943026D01*
X8056271Y-15928740D01*
X8127700Y-15928740D01*
X8156271Y-15943026D01*
X8170557Y-15957311D01*
X8184843Y-15985883D01*
X8184843Y-16057311D01*
X8170557Y-16085883D01*
X8156271Y-16100169D01*
X8127700Y-16114454D01*
X8056271Y-16114454D01*
X8027700Y-16100169D01*
X8013414Y-16085883D01*
X8370557Y-15814454D02*
X8399128Y-15814454D01*
X8427700Y-15828740D01*
X8441986Y-15843026D01*
X8456271Y-15871597D01*
X8470557Y-15928740D01*
X8470557Y-16000169D01*
X8456271Y-16057311D01*
X8441986Y-16085883D01*
X8427700Y-16100169D01*
X8399128Y-16114454D01*
X8370557Y-16114454D01*
X8341986Y-16100169D01*
X8327700Y-16085883D01*
X8313414Y-16057311D01*
X8299128Y-16000169D01*
X8299128Y-15928740D01*
X8313414Y-15871597D01*
X8327700Y-15843026D01*
X8341986Y-15828740D01*
X8370557Y-15814454D01*
X8656271Y-15814454D02*
X8684843Y-15814454D01*
X8713414Y-15828740D01*
X8727700Y-15843026D01*
X8741986Y-15871597D01*
X8756271Y-15928740D01*
X8756271Y-16000169D01*
X8741986Y-16057311D01*
X8727700Y-16085883D01*
X8713414Y-16100169D01*
X8684843Y-16114454D01*
X8656271Y-16114454D01*
X8627700Y-16100169D01*
X8613414Y-16085883D01*
X8599128Y-16057311D01*
X8584843Y-16000169D01*
X8584843Y-15928740D01*
X8599128Y-15871597D01*
X8613414Y-15843026D01*
X8627700Y-15828740D01*
X8656271Y-15814454D01*
X8884843Y-16114454D02*
X8884843Y-15914454D01*
X8884843Y-15943026D02*
X8899128Y-15928740D01*
X8927700Y-15914454D01*
X8970557Y-15914454D01*
X8999128Y-15928740D01*
X9013414Y-15957311D01*
X9013414Y-16114454D01*
X9013414Y-15957311D02*
X9027700Y-15928740D01*
X9056271Y-15914454D01*
X9099128Y-15914454D01*
X9127700Y-15928740D01*
X9141986Y-15957311D01*
X9141986Y-16114454D01*
X9284843Y-16114454D02*
X9284843Y-15914454D01*
X9284843Y-15943026D02*
X9299128Y-15928740D01*
X9327700Y-15914454D01*
X9370557Y-15914454D01*
X9399128Y-15928740D01*
X9413414Y-15957311D01*
X9413414Y-16114454D01*
X9413414Y-15957311D02*
X9427700Y-15928740D01*
X9456271Y-15914454D01*
X9499128Y-15914454D01*
X9527700Y-15928740D01*
X9541986Y-15957311D01*
X9541986Y-16114454D01*
X10127700Y-15800169D02*
X9870557Y-16185883D01*
X10513414Y-15814454D02*
X10541986Y-15814454D01*
X10570557Y-15828740D01*
X10584843Y-15843026D01*
X10599128Y-15871597D01*
X10613414Y-15928740D01*
X10613414Y-16000169D01*
X10599128Y-16057311D01*
X10584843Y-16085883D01*
X10570557Y-16100169D01*
X10541986Y-16114454D01*
X10513414Y-16114454D01*
X10484843Y-16100169D01*
X10470557Y-16085883D01*
X10456271Y-16057311D01*
X10441986Y-16000169D01*
X10441986Y-15928740D01*
X10456271Y-15871597D01*
X10470557Y-15843026D01*
X10484843Y-15828740D01*
X10513414Y-15814454D01*
X10741986Y-16085883D02*
X10756271Y-16100169D01*
X10741986Y-16114454D01*
X10727700Y-16100169D01*
X10741986Y-16085883D01*
X10741986Y-16114454D01*
X10941986Y-15814454D02*
X10970557Y-15814454D01*
X10999128Y-15828740D01*
X11013414Y-15843026D01*
X11027700Y-15871597D01*
X11041986Y-15928740D01*
X11041986Y-16000169D01*
X11027700Y-16057311D01*
X11013414Y-16085883D01*
X10999128Y-16100169D01*
X10970557Y-16114454D01*
X10941986Y-16114454D01*
X10913414Y-16100169D01*
X10899128Y-16085883D01*
X10884843Y-16057311D01*
X10870557Y-16000169D01*
X10870557Y-15928740D01*
X10884843Y-15871597D01*
X10899128Y-15843026D01*
X10913414Y-15828740D01*
X10941986Y-15814454D01*
X11327700Y-16114454D02*
X11156271Y-16114454D01*
X11241986Y-16114454D02*
X11241986Y-15814454D01*
X11213414Y-15857311D01*
X11184843Y-15885883D01*
X11156271Y-15900169D01*
X11470557Y-16114454D02*
X11527700Y-16114454D01*
X11556271Y-16100169D01*
X11570557Y-16085883D01*
X11599128Y-16043026D01*
X11613414Y-15985883D01*
X11613414Y-15871597D01*
X11599128Y-15843026D01*
X11584843Y-15828740D01*
X11556271Y-15814454D01*
X11499128Y-15814454D01*
X11470557Y-15828740D01*
X11456271Y-15843026D01*
X11441986Y-15871597D01*
X11441986Y-15943026D01*
X11456271Y-15971597D01*
X11470557Y-15985883D01*
X11499128Y-16000169D01*
X11556271Y-16000169D01*
X11584843Y-15985883D01*
X11599128Y-15971597D01*
X11613414Y-15943026D01*
X11713414Y-15814454D02*
X11913414Y-15814454D01*
X11784843Y-16114454D01*
X12013414Y-15814454D02*
X12013414Y-15871597D01*
X12127700Y-15814454D02*
X12127700Y-15871597D01*
X12570557Y-16228740D02*
X12556271Y-16214454D01*
X12527700Y-16171597D01*
X12513414Y-16143026D01*
X12499128Y-16100169D01*
X12484843Y-16028740D01*
X12484843Y-15971597D01*
X12499128Y-15900169D01*
X12513414Y-15857311D01*
X12527700Y-15828740D01*
X12556271Y-15785883D01*
X12570557Y-15771597D01*
X12841986Y-16114454D02*
X12670557Y-16114454D01*
X12756271Y-16114454D02*
X12756271Y-15814454D01*
X12727700Y-15857311D01*
X12699128Y-15885883D01*
X12670557Y-15900169D01*
X13099128Y-15814454D02*
X13041986Y-15814454D01*
X13013414Y-15828740D01*
X12999128Y-15843026D01*
X12970557Y-15885883D01*
X12956271Y-15943026D01*
X12956271Y-16057311D01*
X12970557Y-16085883D01*
X12984843Y-16100169D01*
X13013414Y-16114454D01*
X13070557Y-16114454D01*
X13099128Y-16100169D01*
X13113414Y-16085883D01*
X13127700Y-16057311D01*
X13127700Y-15985883D01*
X13113414Y-15957311D01*
X13099128Y-15943026D01*
X13070557Y-15928740D01*
X13013414Y-15928740D01*
X12984843Y-15943026D01*
X12970557Y-15957311D01*
X12956271Y-15985883D01*
X13484843Y-16114454D02*
X13484843Y-15814454D01*
X13613414Y-16114454D02*
X13613414Y-15957311D01*
X13599128Y-15928740D01*
X13570557Y-15914454D01*
X13527700Y-15914454D01*
X13499128Y-15928740D01*
X13484843Y-15943026D01*
X13799128Y-16114454D02*
X13770557Y-16100169D01*
X13756271Y-16085883D01*
X13741986Y-16057311D01*
X13741986Y-15971597D01*
X13756271Y-15943026D01*
X13770557Y-15928740D01*
X13799128Y-15914454D01*
X13841986Y-15914454D01*
X13870557Y-15928740D01*
X13884843Y-15943026D01*
X13899128Y-15971597D01*
X13899128Y-16057311D01*
X13884843Y-16085883D01*
X13870557Y-16100169D01*
X13841986Y-16114454D01*
X13799128Y-16114454D01*
X14070557Y-16114454D02*
X14041986Y-16100169D01*
X14027700Y-16071597D01*
X14027700Y-15814454D01*
X14299128Y-16100169D02*
X14270557Y-16114454D01*
X14213414Y-16114454D01*
X14184843Y-16100169D01*
X14170557Y-16071597D01*
X14170557Y-15957311D01*
X14184843Y-15928740D01*
X14213414Y-15914454D01*
X14270557Y-15914454D01*
X14299128Y-15928740D01*
X14313414Y-15957311D01*
X14313414Y-15985883D01*
X14170557Y-16014454D01*
X14427700Y-16100169D02*
X14456271Y-16114454D01*
X14513414Y-16114454D01*
X14541986Y-16100169D01*
X14556271Y-16071597D01*
X14556271Y-16057311D01*
X14541986Y-16028740D01*
X14513414Y-16014454D01*
X14470557Y-16014454D01*
X14441986Y-16000169D01*
X14427700Y-15971597D01*
X14427700Y-15957311D01*
X14441986Y-15928740D01*
X14470557Y-15914454D01*
X14513414Y-15914454D01*
X14541986Y-15928740D01*
X14656271Y-16228740D02*
X14670557Y-16214454D01*
X14699128Y-16171597D01*
X14713414Y-16143026D01*
X14727700Y-16100169D01*
X14741986Y-16028740D01*
X14741986Y-15971597D01*
X14727700Y-15900169D01*
X14713414Y-15857311D01*
X14699128Y-15828740D01*
X14670557Y-15785883D01*
X14656271Y-15771597D01*
X7262700Y-16324740D02*
X7262700Y-16424740D01*
X7212700Y-16374740D02*
X7312700Y-16374740D01*
X7756271Y-16510454D02*
X7584843Y-16510454D01*
X7670557Y-16510454D02*
X7670557Y-16210454D01*
X7641986Y-16253311D01*
X7613414Y-16281883D01*
X7584843Y-16296169D01*
X7884843Y-16481883D02*
X7899128Y-16496169D01*
X7884843Y-16510454D01*
X7870557Y-16496169D01*
X7884843Y-16481883D01*
X7884843Y-16510454D01*
X8084843Y-16210454D02*
X8113414Y-16210454D01*
X8141986Y-16224740D01*
X8156271Y-16239026D01*
X8170557Y-16267597D01*
X8184843Y-16324740D01*
X8184843Y-16396169D01*
X8170557Y-16453311D01*
X8156271Y-16481883D01*
X8141986Y-16496169D01*
X8113414Y-16510454D01*
X8084843Y-16510454D01*
X8056271Y-16496169D01*
X8041986Y-16481883D01*
X8027700Y-16453311D01*
X8013414Y-16396169D01*
X8013414Y-16324740D01*
X8027700Y-16267597D01*
X8041986Y-16239026D01*
X8056271Y-16224740D01*
X8084843Y-16210454D01*
X8370557Y-16210454D02*
X8399128Y-16210454D01*
X8427700Y-16224740D01*
X8441986Y-16239026D01*
X8456271Y-16267597D01*
X8470557Y-16324740D01*
X8470557Y-16396169D01*
X8456271Y-16453311D01*
X8441986Y-16481883D01*
X8427700Y-16496169D01*
X8399128Y-16510454D01*
X8370557Y-16510454D01*
X8341986Y-16496169D01*
X8327700Y-16481883D01*
X8313414Y-16453311D01*
X8299128Y-16396169D01*
X8299128Y-16324740D01*
X8313414Y-16267597D01*
X8327700Y-16239026D01*
X8341986Y-16224740D01*
X8370557Y-16210454D01*
X8656271Y-16210454D02*
X8684843Y-16210454D01*
X8713414Y-16224740D01*
X8727700Y-16239026D01*
X8741986Y-16267597D01*
X8756271Y-16324740D01*
X8756271Y-16396169D01*
X8741986Y-16453311D01*
X8727700Y-16481883D01*
X8713414Y-16496169D01*
X8684843Y-16510454D01*
X8656271Y-16510454D01*
X8627700Y-16496169D01*
X8613414Y-16481883D01*
X8599128Y-16453311D01*
X8584843Y-16396169D01*
X8584843Y-16324740D01*
X8599128Y-16267597D01*
X8613414Y-16239026D01*
X8627700Y-16224740D01*
X8656271Y-16210454D01*
X8884843Y-16510454D02*
X8884843Y-16310454D01*
X8884843Y-16339026D02*
X8899128Y-16324740D01*
X8927700Y-16310454D01*
X8970557Y-16310454D01*
X8999128Y-16324740D01*
X9013414Y-16353311D01*
X9013414Y-16510454D01*
X9013414Y-16353311D02*
X9027700Y-16324740D01*
X9056271Y-16310454D01*
X9099128Y-16310454D01*
X9127700Y-16324740D01*
X9141986Y-16353311D01*
X9141986Y-16510454D01*
X9284843Y-16510454D02*
X9284843Y-16310454D01*
X9284843Y-16339026D02*
X9299128Y-16324740D01*
X9327700Y-16310454D01*
X9370557Y-16310454D01*
X9399128Y-16324740D01*
X9413414Y-16353311D01*
X9413414Y-16510454D01*
X9413414Y-16353311D02*
X9427700Y-16324740D01*
X9456271Y-16310454D01*
X9499128Y-16310454D01*
X9527700Y-16324740D01*
X9541986Y-16353311D01*
X9541986Y-16510454D01*
X10127700Y-16196169D02*
X9870557Y-16581883D01*
X10513414Y-16210454D02*
X10541986Y-16210454D01*
X10570557Y-16224740D01*
X10584843Y-16239026D01*
X10599128Y-16267597D01*
X10613414Y-16324740D01*
X10613414Y-16396169D01*
X10599128Y-16453311D01*
X10584843Y-16481883D01*
X10570557Y-16496169D01*
X10541986Y-16510454D01*
X10513414Y-16510454D01*
X10484843Y-16496169D01*
X10470557Y-16481883D01*
X10456271Y-16453311D01*
X10441986Y-16396169D01*
X10441986Y-16324740D01*
X10456271Y-16267597D01*
X10470557Y-16239026D01*
X10484843Y-16224740D01*
X10513414Y-16210454D01*
X10741986Y-16481883D02*
X10756271Y-16496169D01*
X10741986Y-16510454D01*
X10727700Y-16496169D01*
X10741986Y-16481883D01*
X10741986Y-16510454D01*
X10941986Y-16210454D02*
X10970557Y-16210454D01*
X10999128Y-16224740D01*
X11013414Y-16239026D01*
X11027700Y-16267597D01*
X11041986Y-16324740D01*
X11041986Y-16396169D01*
X11027700Y-16453311D01*
X11013414Y-16481883D01*
X10999128Y-16496169D01*
X10970557Y-16510454D01*
X10941986Y-16510454D01*
X10913414Y-16496169D01*
X10899128Y-16481883D01*
X10884843Y-16453311D01*
X10870557Y-16396169D01*
X10870557Y-16324740D01*
X10884843Y-16267597D01*
X10899128Y-16239026D01*
X10913414Y-16224740D01*
X10941986Y-16210454D01*
X11141986Y-16210454D02*
X11327700Y-16210454D01*
X11227700Y-16324740D01*
X11270557Y-16324740D01*
X11299128Y-16339026D01*
X11313414Y-16353311D01*
X11327700Y-16381883D01*
X11327700Y-16453311D01*
X11313414Y-16481883D01*
X11299128Y-16496169D01*
X11270557Y-16510454D01*
X11184843Y-16510454D01*
X11156271Y-16496169D01*
X11141986Y-16481883D01*
X11470557Y-16510454D02*
X11527700Y-16510454D01*
X11556271Y-16496169D01*
X11570557Y-16481883D01*
X11599128Y-16439026D01*
X11613414Y-16381883D01*
X11613414Y-16267597D01*
X11599128Y-16239026D01*
X11584843Y-16224740D01*
X11556271Y-16210454D01*
X11499128Y-16210454D01*
X11470557Y-16224740D01*
X11456271Y-16239026D01*
X11441986Y-16267597D01*
X11441986Y-16339026D01*
X11456271Y-16367597D01*
X11470557Y-16381883D01*
X11499128Y-16396169D01*
X11556271Y-16396169D01*
X11584843Y-16381883D01*
X11599128Y-16367597D01*
X11613414Y-16339026D01*
X11870557Y-16310454D02*
X11870557Y-16510454D01*
X11799128Y-16196169D02*
X11727700Y-16410454D01*
X11913414Y-16410454D01*
X12013414Y-16210454D02*
X12013414Y-16267597D01*
X12127700Y-16210454D02*
X12127700Y-16267597D01*
X12570557Y-16624740D02*
X12556271Y-16610454D01*
X12527700Y-16567597D01*
X12513414Y-16539026D01*
X12499128Y-16496169D01*
X12484843Y-16424740D01*
X12484843Y-16367597D01*
X12499128Y-16296169D01*
X12513414Y-16253311D01*
X12527700Y-16224740D01*
X12556271Y-16181883D01*
X12570557Y-16167597D01*
X12813414Y-16310454D02*
X12813414Y-16510454D01*
X12741986Y-16196169D02*
X12670557Y-16410454D01*
X12856271Y-16410454D01*
X13099128Y-16210454D02*
X13041986Y-16210454D01*
X13013414Y-16224740D01*
X12999128Y-16239026D01*
X12970557Y-16281883D01*
X12956271Y-16339026D01*
X12956271Y-16453311D01*
X12970557Y-16481883D01*
X12984843Y-16496169D01*
X13013414Y-16510454D01*
X13070557Y-16510454D01*
X13099128Y-16496169D01*
X13113414Y-16481883D01*
X13127700Y-16453311D01*
X13127700Y-16381883D01*
X13113414Y-16353311D01*
X13099128Y-16339026D01*
X13070557Y-16324740D01*
X13013414Y-16324740D01*
X12984843Y-16339026D01*
X12970557Y-16353311D01*
X12956271Y-16381883D01*
X13484843Y-16510454D02*
X13484843Y-16210454D01*
X13613414Y-16510454D02*
X13613414Y-16353311D01*
X13599128Y-16324740D01*
X13570557Y-16310454D01*
X13527700Y-16310454D01*
X13499128Y-16324740D01*
X13484843Y-16339026D01*
X13799128Y-16510454D02*
X13770557Y-16496169D01*
X13756271Y-16481883D01*
X13741986Y-16453311D01*
X13741986Y-16367597D01*
X13756271Y-16339026D01*
X13770557Y-16324740D01*
X13799128Y-16310454D01*
X13841986Y-16310454D01*
X13870557Y-16324740D01*
X13884843Y-16339026D01*
X13899128Y-16367597D01*
X13899128Y-16453311D01*
X13884843Y-16481883D01*
X13870557Y-16496169D01*
X13841986Y-16510454D01*
X13799128Y-16510454D01*
X14070557Y-16510454D02*
X14041986Y-16496169D01*
X14027700Y-16467597D01*
X14027700Y-16210454D01*
X14299128Y-16496169D02*
X14270557Y-16510454D01*
X14213414Y-16510454D01*
X14184843Y-16496169D01*
X14170557Y-16467597D01*
X14170557Y-16353311D01*
X14184843Y-16324740D01*
X14213414Y-16310454D01*
X14270557Y-16310454D01*
X14299128Y-16324740D01*
X14313414Y-16353311D01*
X14313414Y-16381883D01*
X14170557Y-16410454D01*
X14427700Y-16496169D02*
X14456271Y-16510454D01*
X14513414Y-16510454D01*
X14541986Y-16496169D01*
X14556271Y-16467597D01*
X14556271Y-16453311D01*
X14541986Y-16424740D01*
X14513414Y-16410454D01*
X14470557Y-16410454D01*
X14441986Y-16396169D01*
X14427700Y-16367597D01*
X14427700Y-16353311D01*
X14441986Y-16324740D01*
X14470557Y-16310454D01*
X14513414Y-16310454D01*
X14541986Y-16324740D01*
X14656271Y-16624740D02*
X14670557Y-16610454D01*
X14699128Y-16567597D01*
X14713414Y-16539026D01*
X14727700Y-16496169D01*
X14741986Y-16424740D01*
X14741986Y-16367597D01*
X14727700Y-16296169D01*
X14713414Y-16253311D01*
X14699128Y-16224740D01*
X14670557Y-16181883D01*
X14656271Y-16167597D01*
X7265838Y-16883878D02*
X7265838Y-16657602D01*
X7039562Y-16657602D01*
X7039562Y-16883878D01*
X7265838Y-16883878D01*
X7570557Y-16606454D02*
X7756271Y-16606454D01*
X7656271Y-16720740D01*
X7699128Y-16720740D01*
X7727700Y-16735026D01*
X7741986Y-16749311D01*
X7756271Y-16777883D01*
X7756271Y-16849312D01*
X7741986Y-16877883D01*
X7727700Y-16892169D01*
X7699128Y-16906454D01*
X7613414Y-16906454D01*
X7584843Y-16892169D01*
X7570557Y-16877883D01*
X7884843Y-16877883D02*
X7899128Y-16892169D01*
X7884843Y-16906454D01*
X7870557Y-16892169D01*
X7884843Y-16877883D01*
X7884843Y-16906454D01*
X8013414Y-16635026D02*
X8027700Y-16620740D01*
X8056271Y-16606454D01*
X8127700Y-16606454D01*
X8156271Y-16620740D01*
X8170557Y-16635026D01*
X8184843Y-16663597D01*
X8184843Y-16692169D01*
X8170557Y-16735026D01*
X7999128Y-16906454D01*
X8184843Y-16906454D01*
X8370557Y-16606454D02*
X8399128Y-16606454D01*
X8427700Y-16620740D01*
X8441986Y-16635026D01*
X8456271Y-16663597D01*
X8470557Y-16720740D01*
X8470557Y-16792169D01*
X8456271Y-16849312D01*
X8441986Y-16877883D01*
X8427700Y-16892169D01*
X8399128Y-16906454D01*
X8370557Y-16906454D01*
X8341986Y-16892169D01*
X8327700Y-16877883D01*
X8313414Y-16849312D01*
X8299128Y-16792169D01*
X8299128Y-16720740D01*
X8313414Y-16663597D01*
X8327700Y-16635026D01*
X8341986Y-16620740D01*
X8370557Y-16606454D01*
X8656271Y-16606454D02*
X8684843Y-16606454D01*
X8713414Y-16620740D01*
X8727700Y-16635026D01*
X8741986Y-16663597D01*
X8756271Y-16720740D01*
X8756271Y-16792169D01*
X8741986Y-16849312D01*
X8727700Y-16877883D01*
X8713414Y-16892169D01*
X8684843Y-16906454D01*
X8656271Y-16906454D01*
X8627700Y-16892169D01*
X8613414Y-16877883D01*
X8599128Y-16849312D01*
X8584843Y-16792169D01*
X8584843Y-16720740D01*
X8599128Y-16663597D01*
X8613414Y-16635026D01*
X8627700Y-16620740D01*
X8656271Y-16606454D01*
X8884843Y-16906454D02*
X8884843Y-16706454D01*
X8884843Y-16735026D02*
X8899128Y-16720740D01*
X8927700Y-16706454D01*
X8970557Y-16706454D01*
X8999128Y-16720740D01*
X9013414Y-16749311D01*
X9013414Y-16906454D01*
X9013414Y-16749311D02*
X9027700Y-16720740D01*
X9056271Y-16706454D01*
X9099128Y-16706454D01*
X9127700Y-16720740D01*
X9141986Y-16749311D01*
X9141986Y-16906454D01*
X9284843Y-16906454D02*
X9284843Y-16706454D01*
X9284843Y-16735026D02*
X9299128Y-16720740D01*
X9327700Y-16706454D01*
X9370557Y-16706454D01*
X9399128Y-16720740D01*
X9413414Y-16749311D01*
X9413414Y-16906454D01*
X9413414Y-16749311D02*
X9427700Y-16720740D01*
X9456271Y-16706454D01*
X9499128Y-16706454D01*
X9527700Y-16720740D01*
X9541986Y-16749311D01*
X9541986Y-16906454D01*
X10127700Y-16592169D02*
X9870557Y-16977883D01*
X10513414Y-16606454D02*
X10541986Y-16606454D01*
X10570557Y-16620740D01*
X10584843Y-16635026D01*
X10599128Y-16663597D01*
X10613414Y-16720740D01*
X10613414Y-16792169D01*
X10599128Y-16849312D01*
X10584843Y-16877883D01*
X10570557Y-16892169D01*
X10541986Y-16906454D01*
X10513414Y-16906454D01*
X10484843Y-16892169D01*
X10470557Y-16877883D01*
X10456271Y-16849312D01*
X10441986Y-16792169D01*
X10441986Y-16720740D01*
X10456271Y-16663597D01*
X10470557Y-16635026D01*
X10484843Y-16620740D01*
X10513414Y-16606454D01*
X10741986Y-16877883D02*
X10756271Y-16892169D01*
X10741986Y-16906454D01*
X10727700Y-16892169D01*
X10741986Y-16877883D01*
X10741986Y-16906454D01*
X11041986Y-16906454D02*
X10870557Y-16906454D01*
X10956271Y-16906454D02*
X10956271Y-16606454D01*
X10927700Y-16649311D01*
X10899128Y-16677883D01*
X10870557Y-16692169D01*
X11156271Y-16635026D02*
X11170557Y-16620740D01*
X11199128Y-16606454D01*
X11270557Y-16606454D01*
X11299128Y-16620740D01*
X11313414Y-16635026D01*
X11327700Y-16663597D01*
X11327700Y-16692169D01*
X11313414Y-16735026D01*
X11141986Y-16906454D01*
X11327700Y-16906454D01*
X11584843Y-16606454D02*
X11527700Y-16606454D01*
X11499128Y-16620740D01*
X11484843Y-16635026D01*
X11456271Y-16677883D01*
X11441986Y-16735026D01*
X11441986Y-16849312D01*
X11456271Y-16877883D01*
X11470557Y-16892169D01*
X11499128Y-16906454D01*
X11556271Y-16906454D01*
X11584843Y-16892169D01*
X11599128Y-16877883D01*
X11613414Y-16849312D01*
X11613414Y-16777883D01*
X11599128Y-16749311D01*
X11584843Y-16735026D01*
X11556271Y-16720740D01*
X11499128Y-16720740D01*
X11470557Y-16735026D01*
X11456271Y-16749311D01*
X11441986Y-16777883D01*
X11799128Y-16606454D02*
X11827700Y-16606454D01*
X11856271Y-16620740D01*
X11870557Y-16635026D01*
X11884843Y-16663597D01*
X11899128Y-16720740D01*
X11899128Y-16792169D01*
X11884843Y-16849312D01*
X11870557Y-16877883D01*
X11856271Y-16892169D01*
X11827700Y-16906454D01*
X11799128Y-16906454D01*
X11770557Y-16892169D01*
X11756271Y-16877883D01*
X11741986Y-16849312D01*
X11727700Y-16792169D01*
X11727700Y-16720740D01*
X11741986Y-16663597D01*
X11756271Y-16635026D01*
X11770557Y-16620740D01*
X11799128Y-16606454D01*
X12013414Y-16606454D02*
X12013414Y-16663597D01*
X12127700Y-16606454D02*
X12127700Y-16663597D01*
X12570557Y-17020740D02*
X12556271Y-17006454D01*
X12527700Y-16963597D01*
X12513414Y-16935026D01*
X12499128Y-16892169D01*
X12484843Y-16820740D01*
X12484843Y-16763597D01*
X12499128Y-16692169D01*
X12513414Y-16649311D01*
X12527700Y-16620740D01*
X12556271Y-16577883D01*
X12570557Y-16563597D01*
X12670557Y-16635026D02*
X12684843Y-16620740D01*
X12713414Y-16606454D01*
X12784843Y-16606454D01*
X12813414Y-16620740D01*
X12827700Y-16635026D01*
X12841986Y-16663597D01*
X12841986Y-16692169D01*
X12827700Y-16735026D01*
X12656271Y-16906454D01*
X12841986Y-16906454D01*
X13199128Y-16906454D02*
X13199128Y-16606454D01*
X13327700Y-16906454D02*
X13327700Y-16749311D01*
X13313414Y-16720740D01*
X13284843Y-16706454D01*
X13241986Y-16706454D01*
X13213414Y-16720740D01*
X13199128Y-16735026D01*
X13513414Y-16906454D02*
X13484843Y-16892169D01*
X13470557Y-16877883D01*
X13456271Y-16849312D01*
X13456271Y-16763597D01*
X13470557Y-16735026D01*
X13484843Y-16720740D01*
X13513414Y-16706454D01*
X13556271Y-16706454D01*
X13584843Y-16720740D01*
X13599128Y-16735026D01*
X13613414Y-16763597D01*
X13613414Y-16849312D01*
X13599128Y-16877883D01*
X13584843Y-16892169D01*
X13556271Y-16906454D01*
X13513414Y-16906454D01*
X13784843Y-16906454D02*
X13756271Y-16892169D01*
X13741986Y-16863597D01*
X13741986Y-16606454D01*
X14013414Y-16892169D02*
X13984843Y-16906454D01*
X13927700Y-16906454D01*
X13899128Y-16892169D01*
X13884843Y-16863597D01*
X13884843Y-16749311D01*
X13899128Y-16720740D01*
X13927700Y-16706454D01*
X13984843Y-16706454D01*
X14013414Y-16720740D01*
X14027700Y-16749311D01*
X14027700Y-16777883D01*
X13884843Y-16806454D01*
X14141986Y-16892169D02*
X14170557Y-16906454D01*
X14227700Y-16906454D01*
X14256271Y-16892169D01*
X14270557Y-16863597D01*
X14270557Y-16849312D01*
X14256271Y-16820740D01*
X14227700Y-16806454D01*
X14184843Y-16806454D01*
X14156271Y-16792169D01*
X14141986Y-16763597D01*
X14141986Y-16749311D01*
X14156271Y-16720740D01*
X14184843Y-16706454D01*
X14227700Y-16706454D01*
X14256271Y-16720740D01*
X14370557Y-17020740D02*
X14384843Y-17006454D01*
X14413414Y-16963597D01*
X14427700Y-16935026D01*
X14441986Y-16892169D01*
X14456271Y-16820740D01*
X14456271Y-16763597D01*
X14441986Y-16692169D01*
X14427700Y-16649311D01*
X14413414Y-16620740D01*
X14384843Y-16577883D01*
X14370557Y-16563597D01*
M02*
